M48
METRIC,LZ,000.000
;FILE_FORMAT=3:3
;TYPE=PLATED
;Layer: PTH_Through
;EasyEDA v6.5.48, 2025-02-22 14:07:37
;17b28a04ad434079b4a69dc4657e0bf9,f2e2a8b566e441589a5ce94012aa69ba,10
;Gerber Generator version 0.2
;Holesize 1 = 0.306 mm
T01C0.306
;Holesize 2 = 0.889 mm
T02C0.889
;Holesize 3 = 1.000 mm
T03C1.000
;Holesize 4 = 2.701 mm
T04C2.701
%
G05
G90
T01
X-028867Y006951
X-033499Y004785
X-020887Y013825
X-010653Y019076
X-021451Y013235
X-009019Y003483
X-035097Y019163
X-016637Y015901
X-009265Y007443
X-034819Y016580
X-006627Y011344
X-028348Y016004
X-025225Y008678
X-014229Y006893
X-024515Y012974
X-025977Y015916
X-024711Y009337
X-016598Y008964
X-027134Y016149
X-035833Y011041
X-034340Y010185
X-034395Y006121
X-036628Y001944
X-007633Y003655
X-035430Y003160
X-034603Y015660
X-016424Y018037
X-008266Y018037
X-005991Y014475
X-018328Y016167
X-016483Y013944
X-012974Y014948
X-026135Y005238
X-018309Y005574
X-029092Y015341
T02
X-010414Y004445
X-010414Y001905
X-012954Y004445
X-012954Y001905
X-015494Y004445
X-015494Y001905
T03
X-005403Y013025
X-005400Y010523
X-005403Y008524
X-005400Y006025
T04
X-003602Y015423
X-003602Y003625
M30
