G04 Layer: TopSolderMaskLayer*
G04 EasyEDA v6.5.48, 2025-02-22 14:07:37*
G04 17b28a04ad434079b4a69dc4657e0bf9,f2e2a8b566e441589a5ce94012aa69ba,10*
G04 Gerber Generator version 0.2*
G04 Scale: 100 percent, Rotated: No, Reflected: No *
G04 Dimensions in millimeters *
G04 leading zeros omitted , absolute positions ,4 integer and 5 decimal *
%FSLAX45Y45*%
%MOMM*%

%AMMACRO1*4,1,8,-0.6711,-0.7008,-0.7008,-0.671,-0.7008,0.6711,-0.6711,0.7008,0.671,0.7008,0.7008,0.6711,0.7008,-0.671,0.671,-0.7008,-0.6711,-0.7008,0*%
%AMMACRO2*4,1,8,-0.8085,-0.8382,-0.8382,-0.8084,-0.8382,0.8085,-0.8085,0.8382,0.8084,0.8382,0.8382,0.8085,0.8382,-0.8084,0.8084,-0.8382,-0.8085,-0.8382,0*%
%AMMACRO3*4,1,8,-0.5211,-0.5008,-0.5508,-0.471,-0.5508,0.471,-0.5211,0.5008,0.521,0.5008,0.5508,0.471,0.5508,-0.471,0.521,-0.5008,-0.5211,-0.5008,0*%
%AMMACRO4*4,1,8,-0.7707,-1.05,-0.8,-1.0207,-0.8,1.0207,-0.7707,1.05,0.7707,1.05,0.8,1.0207,0.8,-1.0207,0.7707,-1.05,-0.7707,-1.05,0*%
%ADD10MACRO1*%
%ADD11C,1.6764*%
%ADD12MACRO2*%
%ADD13MACRO3*%
%ADD14O,2.1170899999999997X0.4656074*%
%ADD15MACRO4*%
%ADD16C,1.7016*%
%ADD17C,3.6015*%

%LPD*%
D10*
G01*
X-3581400Y1417500D03*
G01*
X-3581400Y1757499D03*
D11*
G01*
X-1041400Y444500D03*
G01*
X-1041400Y190500D03*
G01*
X-1295400Y444500D03*
G01*
X-1295400Y190500D03*
G01*
X-1549400Y444500D03*
D12*
G01*
X-1549400Y190500D03*
D13*
G01*
X-3581400Y842109D03*
G01*
X-3581400Y1012108D03*
D14*
G01*
X-1501216Y1654403D03*
G01*
X-1501216Y1589404D03*
G01*
X-1501216Y1524406D03*
G01*
X-1501216Y1459407D03*
G01*
X-1501216Y1394409D03*
G01*
X-1501216Y1329410D03*
G01*
X-1501216Y1264386D03*
G01*
X-1501216Y1199387D03*
G01*
X-1501216Y1134389D03*
G01*
X-1501216Y1069390D03*
G01*
X-1501216Y1004392D03*
G01*
X-1501216Y939393D03*
G01*
X-1501216Y874395D03*
G01*
X-1501216Y809396D03*
G01*
X-810183Y1654403D03*
G01*
X-810183Y1589404D03*
G01*
X-810183Y1524406D03*
G01*
X-810183Y1459407D03*
G01*
X-810183Y1394409D03*
G01*
X-810183Y1329410D03*
G01*
X-810183Y1264386D03*
G01*
X-810183Y1199387D03*
G01*
X-810183Y1134389D03*
G01*
X-810183Y1069390D03*
G01*
X-810183Y1004392D03*
G01*
X-810183Y939393D03*
G01*
X-810183Y874395D03*
G01*
X-810183Y809396D03*
D15*
G01*
X-3303498Y215597D03*
G01*
X-3103498Y215602D03*
G01*
X-2903499Y215602D03*
G01*
X-2703499Y215602D03*
G01*
X-2503497Y215602D03*
G01*
X-2303498Y215602D03*
G01*
X-2103498Y215602D03*
G01*
X-1903498Y215602D03*
G01*
X-1903501Y1765599D03*
G01*
X-2103501Y1765599D03*
G01*
X-2303500Y1765599D03*
G01*
X-2503500Y1765599D03*
G01*
X-2703502Y1765599D03*
G01*
X-2903501Y1765599D03*
G01*
X-3103501Y1765599D03*
G01*
X-3303501Y1765599D03*
D16*
G01*
X-540258Y1302512D03*
G01*
X-540004Y1052321D03*
G01*
X-540258Y852423D03*
G01*
X-540004Y602487D03*
D17*
G01*
X-360172Y1542287D03*
G01*
X-360172Y362457D03*
M02*
