G04 Layer: BottomPasteMaskLayer*
G04 EasyEDA v6.5.48, 2025-02-22 14:07:37*
G04 17b28a04ad434079b4a69dc4657e0bf9,f2e2a8b566e441589a5ce94012aa69ba,10*
G04 Gerber Generator version 0.2*
G04 Scale: 100 percent, Rotated: No, Reflected: No *
G04 Dimensions in millimeters *
G04 leading zeros omitted , absolute positions ,4 integer and 5 decimal *
%FSLAX45Y45*%
%MOMM*%

%AMMACRO1*21,1,$1,$2,0,0,$3*%
%ADD10MACRO1,0.8X0.9X0.0000*%
%ADD11MACRO1,1X0.8999X0.0000*%
%ADD12MACRO1,1.36X1.53X0.0000*%
%ADD13O,0.4500118X1.9999959999999999*%
%ADD14O,1.9999959999999999X0.4500118*%
%ADD15MACRO1,3.25X1.9X0.0000*%
%ADD16MACRO1,0.95X1.9X0.0000*%
%ADD17MACRO1,1X0.8999X-90.0000*%
%ADD18MACRO1,1.5X1.3589X0.0000*%
%ADD19MACRO1,1X1.1X0.0000*%
%ADD20MACRO1,0.8X0.9X-90.0000*%

%LPD*%
G36*
X-3595979Y486206D02*
G01*
X-3601008Y481177D01*
X-3601008Y401218D01*
X-3595979Y396189D01*
X-3516020Y396189D01*
X-3510991Y401218D01*
X-3510991Y481177D01*
X-3516020Y486206D01*
X-3540201Y486206D01*
X-3540201Y449173D01*
X-3573221Y449173D01*
X-3573221Y486206D01*
G37*
G36*
X-3595979Y645210D02*
G01*
X-3601008Y640181D01*
X-3601008Y560222D01*
X-3595979Y555193D01*
X-3571798Y555193D01*
X-3571798Y592226D01*
X-3538778Y592226D01*
X-3538778Y555193D01*
X-3516020Y555193D01*
X-3510991Y560222D01*
X-3510991Y640181D01*
X-3516020Y645210D01*
G37*
G36*
X-1783181Y1708708D02*
G01*
X-1788210Y1703679D01*
X-1788210Y1623720D01*
X-1783181Y1618691D01*
X-1703222Y1618691D01*
X-1698193Y1623720D01*
X-1698193Y1647901D01*
X-1735175Y1647901D01*
X-1735175Y1680921D01*
X-1698193Y1680921D01*
X-1698193Y1703679D01*
X-1703222Y1708708D01*
G37*
G36*
X-1624177Y1708708D02*
G01*
X-1629206Y1703679D01*
X-1629206Y1679498D01*
X-1592224Y1679498D01*
X-1592224Y1646478D01*
X-1629206Y1646478D01*
X-1629206Y1623720D01*
X-1624177Y1618691D01*
X-1544218Y1618691D01*
X-1539189Y1623720D01*
X-1539189Y1703679D01*
X-1544218Y1708708D01*
G37*
G36*
X-3634079Y1286306D02*
G01*
X-3639108Y1281277D01*
X-3639108Y1201318D01*
X-3634079Y1196289D01*
X-3554120Y1196289D01*
X-3549091Y1201318D01*
X-3549091Y1281277D01*
X-3554120Y1286306D01*
X-3578301Y1286306D01*
X-3578301Y1249273D01*
X-3611321Y1249273D01*
X-3611321Y1286306D01*
G37*
G36*
X-3634079Y1445310D02*
G01*
X-3639108Y1440281D01*
X-3639108Y1360322D01*
X-3634079Y1355293D01*
X-3609898Y1355293D01*
X-3609898Y1392326D01*
X-3576878Y1392326D01*
X-3576878Y1355293D01*
X-3554120Y1355293D01*
X-3549091Y1360322D01*
X-3549091Y1440281D01*
X-3554120Y1445310D01*
G37*
G36*
X-1589379Y1006906D02*
G01*
X-1594408Y1001877D01*
X-1594408Y921918D01*
X-1589379Y916889D01*
X-1509420Y916889D01*
X-1504391Y921918D01*
X-1504391Y1001877D01*
X-1509420Y1006906D01*
X-1533601Y1006906D01*
X-1533601Y969873D01*
X-1566621Y969873D01*
X-1566621Y1006906D01*
G37*
G36*
X-1589379Y1165910D02*
G01*
X-1594408Y1160881D01*
X-1594408Y1080922D01*
X-1589379Y1075893D01*
X-1565198Y1075893D01*
X-1565198Y1112926D01*
X-1532178Y1112926D01*
X-1532178Y1075893D01*
X-1509420Y1075893D01*
X-1504391Y1080922D01*
X-1504391Y1160881D01*
X-1509420Y1165910D01*
G37*
G36*
X-3230981Y641908D02*
G01*
X-3236010Y636879D01*
X-3236010Y556920D01*
X-3230981Y551891D01*
X-3151022Y551891D01*
X-3145993Y556920D01*
X-3145993Y581101D01*
X-3182975Y581101D01*
X-3182975Y614121D01*
X-3145993Y614121D01*
X-3145993Y636879D01*
X-3151022Y641908D01*
G37*
G36*
X-3071977Y641908D02*
G01*
X-3077006Y636879D01*
X-3077006Y612698D01*
X-3040024Y612698D01*
X-3040024Y579678D01*
X-3077006Y579678D01*
X-3077006Y556920D01*
X-3071977Y551891D01*
X-2992018Y551891D01*
X-2986989Y556920D01*
X-2986989Y636879D01*
X-2992018Y641908D01*
G37*
G36*
X-801979Y498906D02*
G01*
X-807008Y493877D01*
X-807008Y413918D01*
X-801979Y408889D01*
X-722020Y408889D01*
X-716991Y413918D01*
X-716991Y493877D01*
X-722020Y498906D01*
X-746201Y498906D01*
X-746201Y461873D01*
X-779221Y461873D01*
X-779221Y498906D01*
G37*
G36*
X-801979Y657910D02*
G01*
X-807008Y652881D01*
X-807008Y572922D01*
X-801979Y567893D01*
X-777798Y567893D01*
X-777798Y604926D01*
X-744778Y604926D01*
X-744778Y567893D01*
X-722020Y567893D01*
X-716991Y572922D01*
X-716991Y652881D01*
X-722020Y657910D01*
G37*
G36*
X-1986381Y222808D02*
G01*
X-1991410Y217779D01*
X-1991410Y137820D01*
X-1986381Y132791D01*
X-1906422Y132791D01*
X-1901393Y137820D01*
X-1901393Y162001D01*
X-1938375Y162001D01*
X-1938375Y195021D01*
X-1901393Y195021D01*
X-1901393Y217779D01*
X-1906422Y222808D01*
G37*
G36*
X-1827377Y222808D02*
G01*
X-1832406Y217779D01*
X-1832406Y193598D01*
X-1795424Y193598D01*
X-1795424Y160578D01*
X-1832406Y160578D01*
X-1832406Y137820D01*
X-1827377Y132791D01*
X-1747418Y132791D01*
X-1742389Y137820D01*
X-1742389Y217779D01*
X-1747418Y222808D01*
G37*
G36*
X-1783181Y1530908D02*
G01*
X-1788210Y1525879D01*
X-1788210Y1445920D01*
X-1783181Y1440891D01*
X-1703222Y1440891D01*
X-1698193Y1445920D01*
X-1698193Y1470101D01*
X-1735175Y1470101D01*
X-1735175Y1503121D01*
X-1698193Y1503121D01*
X-1698193Y1525879D01*
X-1703222Y1530908D01*
G37*
G36*
X-1624177Y1530908D02*
G01*
X-1629206Y1525879D01*
X-1629206Y1501698D01*
X-1592224Y1501698D01*
X-1592224Y1468678D01*
X-1629206Y1468678D01*
X-1629206Y1445920D01*
X-1624177Y1440891D01*
X-1544218Y1440891D01*
X-1539189Y1445920D01*
X-1539189Y1525879D01*
X-1544218Y1530908D01*
G37*
D10*
G01*
X-2813199Y431800D03*
G01*
X-2673200Y431800D03*
D11*
G01*
X-3594100Y1591409D03*
G01*
X-3594100Y1761408D03*
D12*
G01*
X-1181100Y1740199D03*
G01*
X-1181100Y1333200D03*
D13*
G01*
X-1967890Y639495D03*
G01*
X-2047900Y639495D03*
G01*
X-2127910Y639495D03*
G01*
X-2207895Y639495D03*
G01*
X-2287904Y639495D03*
G01*
X-2367889Y639495D03*
G01*
X-2447899Y639495D03*
G01*
X-2527909Y639495D03*
G01*
X-2527909Y1519504D03*
G01*
X-2447899Y1519504D03*
G01*
X-2367889Y1519504D03*
G01*
X-2287904Y1519504D03*
G01*
X-2207895Y1519504D03*
G01*
X-2127910Y1519504D03*
G01*
X-2047900Y1519504D03*
G01*
X-1967890Y1519504D03*
D14*
G01*
X-1807895Y799490D03*
G01*
X-1807895Y879500D03*
G01*
X-1807895Y959510D03*
G01*
X-1807895Y1039495D03*
G01*
X-1807895Y1119504D03*
G01*
X-1807895Y1199489D03*
G01*
X-1807895Y1279499D03*
G01*
X-1807895Y1359509D03*
G01*
X-2687904Y1359509D03*
G01*
X-2687904Y1279499D03*
G01*
X-2687904Y1199489D03*
G01*
X-2687904Y1119504D03*
G01*
X-2687904Y1039495D03*
G01*
X-2687904Y959510D03*
G01*
X-2687904Y879500D03*
G01*
X-2687904Y799490D03*
D15*
G01*
X-3149600Y1447999D03*
D16*
G01*
X-2919600Y837999D03*
G01*
X-3149600Y837999D03*
G01*
X-3379599Y837999D03*
D17*
G01*
X-3501290Y177800D03*
G01*
X-3331291Y177800D03*
D18*
G01*
X-1048400Y698500D03*
G01*
X-1288398Y698500D03*
G01*
X-1861200Y419100D03*
G01*
X-2101198Y419100D03*
D19*
G01*
X-2932602Y177800D03*
G01*
X-3112612Y177800D03*
D20*
G01*
X-774700Y133200D03*
G01*
X-774700Y273199D03*
G01*
X-1079500Y996800D03*
G01*
X-1079500Y1136799D03*
G01*
X-1282700Y996800D03*
G01*
X-1282700Y1136799D03*
M02*
