G04 Layer: TopSilkscreenLayer*
G04 EasyEDA v6.5.48, 2025-02-22 14:07:37*
G04 17b28a04ad434079b4a69dc4657e0bf9,f2e2a8b566e441589a5ce94012aa69ba,10*
G04 Gerber Generator version 0.2*
G04 Scale: 100 percent, Rotated: No, Reflected: No *
G04 Dimensions in millimeters *
G04 leading zeros omitted , absolute positions ,4 integer and 5 decimal *
%FSLAX45Y45*%
%MOMM*%

%ADD10C,0.1524*%
%ADD11C,0.2540*%
%ADD12C,0.2032*%
%ADD13C,0.1500*%
%ADD14C,0.3000*%
%ADD15C,0.6000*%

%LPD*%
D10*
X177800Y1779015D02*
G01*
X177800Y1701037D01*
X182879Y1685544D01*
X193293Y1675129D01*
X209041Y1670050D01*
X219456Y1670050D01*
X234950Y1675129D01*
X245363Y1685544D01*
X250443Y1701037D01*
X250443Y1779015D01*
X357631Y1763521D02*
G01*
X347218Y1773936D01*
X331470Y1779015D01*
X310895Y1779015D01*
X295147Y1773936D01*
X284734Y1763521D01*
X284734Y1753107D01*
X290068Y1742694D01*
X295147Y1737360D01*
X305561Y1732279D01*
X336804Y1721865D01*
X347218Y1716786D01*
X352297Y1711452D01*
X357631Y1701037D01*
X357631Y1685544D01*
X347218Y1675129D01*
X331470Y1670050D01*
X310895Y1670050D01*
X295147Y1675129D01*
X284734Y1685544D01*
X391922Y1779015D02*
G01*
X391922Y1670050D01*
X391922Y1779015D02*
G01*
X438658Y1779015D01*
X454152Y1773936D01*
X459486Y1768602D01*
X464565Y1758187D01*
X464565Y1747773D01*
X459486Y1737360D01*
X454152Y1732279D01*
X438658Y1727200D01*
X391922Y1727200D02*
G01*
X438658Y1727200D01*
X454152Y1721865D01*
X459486Y1716786D01*
X464565Y1706371D01*
X464565Y1690623D01*
X459486Y1680210D01*
X454152Y1675129D01*
X438658Y1670050D01*
X391922Y1670050D01*
X498856Y1758187D02*
G01*
X509270Y1763521D01*
X524763Y1779015D01*
X524763Y1670050D01*
G36*
X-3617417Y939088D02*
G01*
X-3581400Y913130D01*
X-3545382Y938123D01*
G37*
D11*
X-3481400Y1737499D02*
G01*
X-3481400Y1437500D01*
X-3581400Y1605279D02*
G01*
X-3540759Y1546860D01*
X-3540759Y1546860D02*
G01*
X-3622040Y1546860D01*
X-3622040Y1546860D02*
G01*
X-3581400Y1605279D01*
X-3681399Y1437500D02*
G01*
X-3681399Y1737499D01*
X-3530600Y1628139D02*
G01*
X-3632200Y1628139D01*
D12*
X-914400Y63500D02*
G01*
X-914400Y571500D01*
X-1676400Y571500D01*
X-1676400Y63500D01*
X-914400Y63500D01*
X-1401241Y63500D01*
D13*
X-3508400Y890099D02*
G01*
X-3508400Y775101D01*
X-3653398Y775101D01*
X-3653398Y895101D01*
X-3654399Y957099D02*
G01*
X-3654399Y1081100D01*
X-3509401Y1081100D01*
X-3509401Y957099D01*
X-3508400Y775101D02*
G01*
X-3508400Y772099D01*
X-3528400Y752099D01*
X-3630399Y752099D01*
X-3633398Y755101D01*
X-3653398Y775101D01*
D10*
X-1377589Y1750019D02*
G01*
X-933810Y1750019D01*
X-933810Y713780D01*
X-1377589Y713780D01*
X-1377589Y1750019D01*
D11*
X-3452738Y200657D02*
G01*
X-3453500Y201305D01*
X-3401613Y201305D01*
X-3401616Y1793603D02*
G01*
X-3453262Y1793603D01*
X-3453262Y199047D01*
X-3452322Y199047D01*
X-3201616Y1793603D02*
G01*
X-3205386Y1793603D01*
X-3001617Y1793603D02*
G01*
X-3005386Y1793603D01*
X-2801617Y1793603D02*
G01*
X-2805386Y1793603D01*
X-2601615Y1793603D02*
G01*
X-2605387Y1793603D01*
X-2401615Y1793603D02*
G01*
X-2405385Y1793603D01*
X-2201616Y1793603D02*
G01*
X-2205385Y1793603D01*
X-2001616Y1793603D02*
G01*
X-2005385Y1793603D01*
X-1805383Y201305D02*
G01*
X-1751639Y201305D01*
X-1751639Y1793603D01*
X-1805386Y1793603D01*
X-2005383Y201305D02*
G01*
X-2001613Y201305D01*
X-2205382Y201305D02*
G01*
X-2201613Y201305D01*
X-2405382Y201305D02*
G01*
X-2401613Y201305D01*
X-2605384Y201305D02*
G01*
X-2601612Y201305D01*
X-2805384Y201305D02*
G01*
X-2801614Y201305D01*
X-3005383Y201305D02*
G01*
X-3001614Y201305D01*
X-3205383Y201305D02*
G01*
X-3201614Y201305D01*
X-121031Y1556461D02*
G01*
X69468Y1556461D01*
X69468Y1556461D02*
G01*
X1545209Y1556461D01*
X1545209Y1556461D02*
G01*
X1545209Y957021D01*
X1545209Y957021D02*
G01*
X1545209Y357581D01*
X1545209Y357581D02*
G01*
X69468Y357581D01*
X-319150Y357581D02*
G01*
X-319150Y393141D01*
X-319150Y1338021D02*
G01*
X-319150Y1520926D01*
X-319150Y1520926D02*
G01*
X-319150Y1556461D01*
X69468Y1556461D02*
G01*
X69468Y1520926D01*
X69468Y1520926D02*
G01*
X69468Y957021D01*
X69468Y957021D02*
G01*
X69468Y393141D01*
X69468Y393141D02*
G01*
X69468Y357581D01*
X831468Y1383741D02*
G01*
X1037209Y1383741D01*
X1037209Y1383741D02*
G01*
X1037209Y1134821D01*
X1037209Y1134821D02*
G01*
X831468Y1134821D01*
X831468Y1134821D02*
G01*
X831468Y1383741D01*
X831468Y779221D02*
G01*
X1037209Y779221D01*
X1037209Y779221D02*
G01*
X1037209Y530326D01*
X1037209Y530326D02*
G01*
X831468Y530326D01*
X831468Y530326D02*
G01*
X831468Y779221D01*
X359029Y957021D02*
G01*
X69468Y957021D01*
X1184529Y957021D02*
G01*
X557149Y957021D01*
X1545209Y957021D02*
G01*
X1382649Y957021D01*
X364109Y1035761D02*
G01*
X381888Y1010361D01*
X384429Y1078941D02*
G01*
X531749Y1078941D01*
X552068Y1035761D02*
G01*
X534288Y1010361D01*
X1189609Y1035761D02*
G01*
X1207388Y1010361D01*
X1209929Y1078941D02*
G01*
X1354709Y1078941D01*
X1377568Y1035761D02*
G01*
X1359788Y1010361D01*
X1359788Y1010361D02*
G01*
X1357249Y1010361D01*
X-540131Y1338021D02*
G01*
X-415670Y1338021D01*
X-415670Y1338021D02*
G01*
X-319150Y1338021D01*
X-319150Y1086561D02*
G01*
X-319150Y1277061D01*
X-319150Y1277061D02*
G01*
X-319150Y1338021D01*
X-319150Y1277061D02*
G01*
X-415670Y1277061D01*
X-415670Y1277061D02*
G01*
X-540131Y1277061D01*
X-540131Y1277061D02*
G01*
X-540131Y1338021D01*
X-415670Y1338021D02*
G01*
X-415670Y1277061D01*
X-415670Y1086561D02*
G01*
X-415670Y1028141D01*
X-415670Y885926D02*
G01*
X-415670Y827481D01*
X-415670Y636981D02*
G01*
X-415670Y576021D01*
X-540131Y1086561D02*
G01*
X-319150Y1086561D01*
X-319150Y885926D02*
G01*
X-319150Y1028141D01*
X-319150Y1028141D02*
G01*
X-319150Y1086561D01*
X-319150Y1028141D02*
G01*
X-540131Y1028141D01*
X-540131Y1028141D02*
G01*
X-540131Y1086561D01*
X-540131Y885926D02*
G01*
X-319150Y885926D01*
X-319150Y636981D02*
G01*
X-319150Y827481D01*
X-319150Y827481D02*
G01*
X-319150Y885926D01*
X-319150Y827481D02*
G01*
X-540131Y827481D01*
X-540131Y827481D02*
G01*
X-540131Y885926D01*
X-540131Y636981D02*
G01*
X-319150Y636981D01*
X-319150Y393141D02*
G01*
X-319150Y576021D01*
X-319150Y576021D02*
G01*
X-319150Y636981D01*
X-319150Y576021D02*
G01*
X-540131Y576021D01*
X-540131Y576021D02*
G01*
X-540131Y636981D01*
X-319150Y1520926D02*
G01*
X-121031Y1520926D01*
X-121031Y1520926D02*
G01*
X69468Y1520926D01*
X-319150Y1599641D02*
G01*
X-121031Y1599641D01*
X-121031Y1599641D02*
G01*
X-121031Y1556461D01*
X-121031Y1556461D02*
G01*
X-319150Y1556461D01*
X-319150Y1556461D02*
G01*
X-319150Y1599641D01*
X-319150Y357581D02*
G01*
X-121031Y357581D01*
X-121031Y357581D02*
G01*
X69468Y357581D01*
X-121031Y357581D02*
G01*
X-121031Y314426D01*
X-121031Y314426D02*
G01*
X-319150Y314426D01*
X-319150Y314426D02*
G01*
X-319150Y357581D01*
X-121031Y393141D02*
G01*
X-121031Y357581D01*
X-319150Y393141D02*
G01*
X69468Y393141D01*
X-121031Y1556461D02*
G01*
X-121031Y1520926D01*
G75*
G01*
X359918Y956056D02*
G03*
X382524Y1009650I-5610J33931D01*
G75*
G01*
X364490Y1036066D02*
G02*
X385826Y1076960I21330J14884D01*
G75*
G01*
X531876Y1076960D02*
G02*
X552958Y1036066I-247J-26008D01*
G75*
G01*
X557784Y956056D02*
G02*
X535178Y1009650I5610J33931D01*
G75*
G01*
X1184910Y956056D02*
G03*
X1207516Y1009650I-5610J33931D01*
G75*
G01*
X1189482Y1036066D02*
G02*
X1210818Y1076960I21330J14884D01*
G75*
G01*
X1356868Y1076960D02*
G02*
X1377950Y1036066I-247J-26008D01*
G75*
G01*
X1382776Y956056D02*
G02*
X1360170Y1009650I5610J33931D01*
D14*
G75*
G01
X-1287348Y1654404D02*
G03X-1287348Y1654404I-15011J0D01*
G75*
G01
X-1486205Y1717827D02*
G03X-1486205Y1717827I-15011J0D01*
D15*
G75*
G01
X-3282076Y390827D02*
G03X-3282076Y390827I-29997J0D01*
M02*
