G04 Layer: TopLayer*
G04 EasyEDA v6.5.48, 2025-02-22 14:07:37*
G04 17b28a04ad434079b4a69dc4657e0bf9,f2e2a8b566e441589a5ce94012aa69ba,10*
G04 Gerber Generator version 0.2*
G04 Scale: 100 percent, Rotated: No, Reflected: No *
G04 Dimensions in millimeters *
G04 leading zeros omitted , absolute positions ,4 integer and 5 decimal *
%FSLAX45Y45*%
%MOMM*%

%ADD10C,0.2540*%
%ADD11R,1.3000X1.3000*%
%ADD12R,1.0000X0.8999*%
%ADD13O,2.01549X0.36400740000000004*%
%ADD14R,1.5000X2.0000*%
%ADD15C,1.5748*%
%ADD16R,1.5748X1.5748*%
%ADD17C,1.6000*%
%ADD18C,3.4999*%
%ADD19C,0.6100*%
%ADD20C,0.0190*%

%LPD*%
G36*
X-3203498Y331114D02*
G01*
X-3207410Y331876D01*
X-3210661Y334111D01*
X-3212388Y335788D01*
X-3217265Y338886D01*
X-3222752Y340766D01*
X-3229051Y341477D01*
X-3324961Y341477D01*
X-3328822Y342290D01*
X-3332124Y344474D01*
X-3334359Y347776D01*
X-3335121Y351637D01*
X-3334359Y355549D01*
X-3332124Y358851D01*
X-2452471Y1238554D01*
X-2449576Y1240536D01*
X-2446172Y1241450D01*
X-2441752Y1241856D01*
X-2432253Y1244396D01*
X-2423363Y1248562D01*
X-2415286Y1254201D01*
X-2408377Y1261110D01*
X-2402738Y1269187D01*
X-2398572Y1278077D01*
X-2396032Y1287576D01*
X-2395169Y1297381D01*
X-2396032Y1307134D01*
X-2398572Y1316634D01*
X-2402738Y1325575D01*
X-2408377Y1333601D01*
X-2415286Y1340561D01*
X-2423363Y1346200D01*
X-2432253Y1350314D01*
X-2441752Y1352905D01*
X-2451557Y1353718D01*
X-2461310Y1352905D01*
X-2470810Y1350314D01*
X-2479751Y1346200D01*
X-2487777Y1340561D01*
X-2494737Y1333601D01*
X-2500376Y1325575D01*
X-2504490Y1316634D01*
X-2507081Y1307134D01*
X-2507894Y1297381D01*
X-2508504Y1293012D01*
X-2510840Y1289354D01*
X-3433572Y366623D01*
X-3438702Y360375D01*
X-3440379Y357225D01*
X-3443274Y353872D01*
X-3447338Y352044D01*
X-3451809Y352145D01*
X-3455771Y354177D01*
X-3458514Y357682D01*
X-3459479Y362000D01*
X-3459479Y546354D01*
X-3458616Y550468D01*
X-3456178Y553872D01*
X-3452622Y556006D01*
X-3448456Y556463D01*
X-3439515Y555701D01*
X-3429762Y556564D01*
X-3420262Y559104D01*
X-3411321Y563270D01*
X-3403295Y568909D01*
X-3396335Y575818D01*
X-3390696Y583895D01*
X-3386582Y592785D01*
X-3383991Y602284D01*
X-3383178Y612089D01*
X-3383991Y621842D01*
X-3386582Y631342D01*
X-3390696Y640283D01*
X-3396335Y648309D01*
X-3397961Y649884D01*
X-3400145Y653186D01*
X-3400907Y657098D01*
X-3400907Y967943D01*
X-3400145Y971854D01*
X-3397961Y975156D01*
X-3390849Y982218D01*
X-3385210Y990295D01*
X-3381044Y999185D01*
X-3378504Y1008684D01*
X-3377641Y1018489D01*
X-3378504Y1028242D01*
X-3381044Y1037742D01*
X-3385210Y1046683D01*
X-3390849Y1054709D01*
X-3397758Y1061669D01*
X-3405835Y1067308D01*
X-3414725Y1071422D01*
X-3424224Y1074013D01*
X-3434029Y1074826D01*
X-3443782Y1074013D01*
X-3446678Y1073200D01*
X-3450386Y1072946D01*
X-3453942Y1073962D01*
X-3456889Y1076248D01*
X-3458819Y1079398D01*
X-3459479Y1083005D01*
X-3459479Y1163574D01*
X-3460292Y1171600D01*
X-3462477Y1178814D01*
X-3466033Y1185468D01*
X-3471164Y1191717D01*
X-3588664Y1309268D01*
X-3590899Y1312519D01*
X-3591661Y1316431D01*
X-3590899Y1320342D01*
X-3588664Y1323594D01*
X-3585362Y1325829D01*
X-3581501Y1326591D01*
X-3516985Y1326591D01*
X-3510635Y1327302D01*
X-3505200Y1329232D01*
X-3500272Y1332280D01*
X-3496208Y1336395D01*
X-3493109Y1341272D01*
X-3491179Y1346758D01*
X-3490468Y1353058D01*
X-3490468Y1368755D01*
X-3489706Y1372616D01*
X-3487521Y1375918D01*
X-3484219Y1378153D01*
X-3480308Y1378915D01*
X-2259228Y1378915D01*
X-2255367Y1378153D01*
X-2252065Y1375918D01*
X-2204212Y1328064D01*
X-2202180Y1325168D01*
X-2201265Y1321765D01*
X-2200605Y1313738D01*
X-2198014Y1304239D01*
X-2193899Y1295349D01*
X-2188260Y1287272D01*
X-2181301Y1280363D01*
X-2173274Y1274724D01*
X-2164334Y1270558D01*
X-2154834Y1268018D01*
X-2145080Y1267155D01*
X-2135276Y1268018D01*
X-2125776Y1270558D01*
X-2116886Y1274724D01*
X-2108809Y1280363D01*
X-2101900Y1287272D01*
X-2096262Y1295349D01*
X-2092096Y1304239D01*
X-2089556Y1313738D01*
X-2088692Y1323543D01*
X-2089556Y1333296D01*
X-2092096Y1342796D01*
X-2096262Y1351737D01*
X-2101900Y1359763D01*
X-2108809Y1366723D01*
X-2116886Y1372362D01*
X-2125776Y1376476D01*
X-2135276Y1379067D01*
X-2143302Y1379728D01*
X-2146706Y1380642D01*
X-2149602Y1382674D01*
X-2211374Y1444447D01*
X-2217623Y1449578D01*
X-2224278Y1453134D01*
X-2231542Y1455318D01*
X-2239568Y1456131D01*
X-3370732Y1456131D01*
X-3374644Y1456893D01*
X-3377946Y1459077D01*
X-3380130Y1462379D01*
X-3380892Y1466291D01*
X-3380130Y1470152D01*
X-3377946Y1473454D01*
X-3374796Y1476603D01*
X-3369665Y1482852D01*
X-3366109Y1489506D01*
X-3363925Y1496720D01*
X-3363112Y1504746D01*
X-3363112Y1589786D01*
X-3363925Y1597812D01*
X-3366109Y1605076D01*
X-3367684Y1608632D01*
X-3367989Y1611122D01*
X-3367989Y1629511D01*
X-3367227Y1633423D01*
X-3364992Y1636725D01*
X-3361690Y1638909D01*
X-3357829Y1639671D01*
X-3229051Y1639671D01*
X-3222752Y1640382D01*
X-3217265Y1642313D01*
X-3212388Y1645412D01*
X-3210661Y1647088D01*
X-3207410Y1649323D01*
X-3203498Y1650085D01*
X-3199638Y1649323D01*
X-3196336Y1647088D01*
X-3194608Y1645412D01*
X-3189732Y1642313D01*
X-3184245Y1640382D01*
X-3177946Y1639671D01*
X-3151428Y1639671D01*
X-3147771Y1639011D01*
X-3144621Y1637080D01*
X-3142386Y1634083D01*
X-3139135Y1622907D01*
X-3135528Y1616252D01*
X-3130753Y1610410D01*
X-3124911Y1605635D01*
X-3118256Y1602028D01*
X-3110992Y1599844D01*
X-3102965Y1599082D01*
X-3032912Y1599082D01*
X-3029051Y1598320D01*
X-3025749Y1596085D01*
X-2968294Y1538630D01*
X-2966262Y1535734D01*
X-2965348Y1532331D01*
X-2964688Y1524304D01*
X-2962097Y1514805D01*
X-2957982Y1505915D01*
X-2952343Y1497838D01*
X-2945384Y1490929D01*
X-2937357Y1485290D01*
X-2928416Y1481124D01*
X-2918917Y1478584D01*
X-2909163Y1477721D01*
X-2899359Y1478584D01*
X-2889859Y1481124D01*
X-2880969Y1485290D01*
X-2872892Y1490929D01*
X-2865983Y1497838D01*
X-2860344Y1505915D01*
X-2856179Y1514805D01*
X-2853639Y1524254D01*
X-2852724Y1535379D01*
X-2851658Y1539189D01*
X-2849168Y1542338D01*
X-2845714Y1544269D01*
X-2841752Y1544675D01*
X-2834741Y1544066D01*
X-2824988Y1544929D01*
X-2815488Y1547469D01*
X-2806547Y1551635D01*
X-2798521Y1557274D01*
X-2791561Y1564182D01*
X-2785922Y1572260D01*
X-2781757Y1581200D01*
X-2780893Y1584350D01*
X-2779166Y1587754D01*
X-2776372Y1590344D01*
X-2772816Y1591665D01*
X-2769006Y1591564D01*
X-2765501Y1590090D01*
X-2762758Y1587449D01*
X-2756611Y1578660D01*
X-2749702Y1571752D01*
X-2741625Y1566113D01*
X-2732735Y1561947D01*
X-2723235Y1559407D01*
X-2713431Y1558544D01*
X-2703677Y1559407D01*
X-2694178Y1561947D01*
X-2685237Y1566113D01*
X-2677210Y1571752D01*
X-2667101Y1581962D01*
X-2663545Y1583436D01*
X-2659735Y1583486D01*
X-2656179Y1582115D01*
X-2653334Y1579575D01*
X-2651658Y1576120D01*
X-2650642Y1572310D01*
X-2646527Y1563420D01*
X-2640888Y1555343D01*
X-2633929Y1548434D01*
X-2625902Y1542796D01*
X-2616962Y1538630D01*
X-2607462Y1536090D01*
X-2597708Y1535226D01*
X-2587904Y1536090D01*
X-2578404Y1538630D01*
X-2569514Y1542796D01*
X-2561437Y1548434D01*
X-2554528Y1555343D01*
X-2548890Y1563420D01*
X-2544724Y1572310D01*
X-2542184Y1581810D01*
X-2541473Y1589786D01*
X-2540457Y1593392D01*
X-2538222Y1596390D01*
X-2535021Y1598371D01*
X-2531364Y1599082D01*
X-2503982Y1599082D01*
X-2495956Y1599844D01*
X-2488742Y1602028D01*
X-2482088Y1605635D01*
X-2476246Y1610410D01*
X-2471420Y1616252D01*
X-2467864Y1622907D01*
X-2464612Y1634083D01*
X-2462326Y1637080D01*
X-2459177Y1639011D01*
X-2455519Y1639671D01*
X-2429052Y1639671D01*
X-2422753Y1640382D01*
X-2417267Y1642313D01*
X-2412390Y1645412D01*
X-2410663Y1647088D01*
X-2407412Y1649323D01*
X-2403500Y1650085D01*
X-2399588Y1649323D01*
X-2396337Y1647088D01*
X-2394610Y1645412D01*
X-2389733Y1642313D01*
X-2384247Y1640382D01*
X-2377948Y1639671D01*
X-2229053Y1639671D01*
X-2222754Y1640382D01*
X-2217267Y1642313D01*
X-2212390Y1645412D01*
X-2210663Y1647088D01*
X-2207412Y1649323D01*
X-2203500Y1650085D01*
X-2199589Y1649323D01*
X-2196338Y1647088D01*
X-2194610Y1645412D01*
X-2189734Y1642313D01*
X-2184247Y1640382D01*
X-2177948Y1639671D01*
X-2029053Y1639671D01*
X-2022754Y1640382D01*
X-2017268Y1642313D01*
X-2012391Y1645412D01*
X-2010664Y1647088D01*
X-2007412Y1649323D01*
X-2003501Y1650085D01*
X-1999589Y1649323D01*
X-1996338Y1647088D01*
X-1994611Y1645412D01*
X-1989734Y1642313D01*
X-1984248Y1640382D01*
X-1977948Y1639671D01*
X-1947367Y1639671D01*
X-1947367Y1709267D01*
X-1992426Y1709267D01*
X-1996338Y1710029D01*
X-1999640Y1712214D01*
X-2001824Y1715516D01*
X-2002586Y1719427D01*
X-2002586Y1811782D01*
X-2001824Y1815693D01*
X-1999640Y1818995D01*
X-1996338Y1821180D01*
X-1992426Y1821942D01*
X-1947367Y1821942D01*
X-1947367Y1858822D01*
X-1946554Y1862683D01*
X-1944370Y1865985D01*
X-1941068Y1868220D01*
X-1937207Y1868982D01*
X-1869795Y1868982D01*
X-1865934Y1868220D01*
X-1862632Y1865985D01*
X-1860448Y1862683D01*
X-1859635Y1858822D01*
X-1859635Y1821942D01*
X-1802587Y1821942D01*
X-1802587Y1858822D01*
X-1801825Y1862683D01*
X-1799640Y1865985D01*
X-1796338Y1868220D01*
X-1792427Y1868982D01*
X-1679346Y1868982D01*
X-1675180Y1868068D01*
X-1671726Y1865579D01*
X-1669643Y1861870D01*
X-1669237Y1857654D01*
X-1670608Y1853590D01*
X-1673504Y1850491D01*
X-1678686Y1846884D01*
X-1685594Y1839925D01*
X-1691233Y1831898D01*
X-1695399Y1822957D01*
X-1697939Y1813458D01*
X-1698802Y1803704D01*
X-1697939Y1793900D01*
X-1695399Y1784400D01*
X-1691233Y1775510D01*
X-1685594Y1767433D01*
X-1678686Y1760524D01*
X-1674774Y1757781D01*
X-1671878Y1754682D01*
X-1670507Y1750618D01*
X-1670913Y1746402D01*
X-1672996Y1742693D01*
X-1676450Y1740204D01*
X-1680616Y1739290D01*
X-1748383Y1739290D01*
X-1756410Y1738528D01*
X-1763623Y1736343D01*
X-1770278Y1732737D01*
X-1776526Y1727657D01*
X-1791970Y1712214D01*
X-1795221Y1710029D01*
X-1799132Y1709267D01*
X-1859635Y1709267D01*
X-1859635Y1671828D01*
X-1860143Y1668627D01*
X-1861667Y1665732D01*
X-1864004Y1663496D01*
X-1869084Y1659940D01*
X-1875993Y1652981D01*
X-1881632Y1644954D01*
X-1885797Y1636014D01*
X-1888337Y1626514D01*
X-1889201Y1616760D01*
X-1888337Y1606956D01*
X-1885797Y1597456D01*
X-1881632Y1588566D01*
X-1875993Y1580489D01*
X-1869084Y1573580D01*
X-1861007Y1567942D01*
X-1852117Y1563776D01*
X-1842617Y1561236D01*
X-1832813Y1560372D01*
X-1823059Y1561236D01*
X-1813560Y1563776D01*
X-1804619Y1567942D01*
X-1796592Y1573580D01*
X-1789633Y1580489D01*
X-1783994Y1588566D01*
X-1779879Y1597456D01*
X-1777288Y1606956D01*
X-1776628Y1614982D01*
X-1775714Y1618386D01*
X-1773682Y1621282D01*
X-1735886Y1659128D01*
X-1732584Y1661312D01*
X-1728673Y1662074D01*
X-1687982Y1662074D01*
X-1684121Y1661312D01*
X-1680870Y1659178D01*
X-1678635Y1655978D01*
X-1677822Y1652168D01*
X-1678482Y1648358D01*
X-1680514Y1645005D01*
X-1683664Y1642719D01*
X-1691893Y1638909D01*
X-1699920Y1633270D01*
X-1706880Y1626311D01*
X-1712518Y1618284D01*
X-1716633Y1609344D01*
X-1719224Y1599844D01*
X-1720037Y1590090D01*
X-1719224Y1580286D01*
X-1716633Y1570786D01*
X-1712518Y1561896D01*
X-1706880Y1553819D01*
X-1699920Y1546910D01*
X-1691893Y1541272D01*
X-1682953Y1537106D01*
X-1673453Y1534566D01*
X-1663700Y1533702D01*
X-1653895Y1534566D01*
X-1644396Y1537106D01*
X-1642110Y1538173D01*
X-1638198Y1539138D01*
X-1634185Y1538427D01*
X-1630781Y1536293D01*
X-1628495Y1532940D01*
X-1627682Y1528978D01*
X-1627682Y1520342D01*
X-1626158Y1512316D01*
X-1623263Y1504746D01*
X-1618589Y1497228D01*
X-1617268Y1493774D01*
X-1617268Y1490014D01*
X-1618589Y1486560D01*
X-1623263Y1479042D01*
X-1626158Y1471472D01*
X-1627682Y1463446D01*
X-1627682Y1460093D01*
X-1628546Y1455978D01*
X-1630984Y1452575D01*
X-1634591Y1450441D01*
X-1638706Y1449933D01*
X-1648358Y1450797D01*
X-1658112Y1449933D01*
X-1667611Y1447393D01*
X-1676552Y1443228D01*
X-1684578Y1437589D01*
X-1691538Y1430680D01*
X-1697177Y1422603D01*
X-1701292Y1413713D01*
X-1703882Y1404213D01*
X-1704695Y1394409D01*
X-1703882Y1384655D01*
X-1701292Y1375156D01*
X-1697177Y1366215D01*
X-1691538Y1358188D01*
X-1684578Y1351229D01*
X-1676552Y1345590D01*
X-1667611Y1341475D01*
X-1658112Y1338884D01*
X-1648358Y1338072D01*
X-1638706Y1338884D01*
X-1634591Y1338376D01*
X-1630984Y1336243D01*
X-1628546Y1332839D01*
X-1627682Y1328775D01*
X-1627682Y1325321D01*
X-1626158Y1317345D01*
X-1623263Y1309776D01*
X-1618589Y1302258D01*
X-1617268Y1298752D01*
X-1617268Y1295044D01*
X-1618589Y1291539D01*
X-1623263Y1284020D01*
X-1624888Y1279855D01*
X-1556816Y1279855D01*
X-1554530Y1282750D01*
X-1551381Y1284630D01*
X-1547825Y1285290D01*
X-1454658Y1285290D01*
X-1451051Y1284630D01*
X-1447901Y1282750D01*
X-1445666Y1279855D01*
X-1377594Y1279855D01*
X-1379220Y1284020D01*
X-1383842Y1291539D01*
X-1385214Y1295044D01*
X-1385214Y1298752D01*
X-1383842Y1302258D01*
X-1379220Y1309776D01*
X-1376273Y1317345D01*
X-1374749Y1325321D01*
X-1374749Y1333449D01*
X-1375257Y1336141D01*
X-1375156Y1340408D01*
X-1373276Y1344218D01*
X-1370025Y1346962D01*
X-1365910Y1348130D01*
X-1361694Y1347520D01*
X-1358087Y1345184D01*
X-1120394Y1107440D01*
X-1114145Y1102360D01*
X-1107490Y1098753D01*
X-1100226Y1096568D01*
X-1092200Y1095806D01*
X-944422Y1095806D01*
X-940562Y1095044D01*
X-937310Y1092860D01*
X-935075Y1089660D01*
X-934262Y1085799D01*
X-936650Y1073454D01*
X-936650Y1065326D01*
X-935126Y1057351D01*
X-932180Y1049782D01*
X-927557Y1042263D01*
X-926185Y1038758D01*
X-926185Y1035050D01*
X-927557Y1031544D01*
X-932180Y1024026D01*
X-935126Y1016457D01*
X-936650Y1008481D01*
X-936650Y1000353D01*
X-934262Y988009D01*
X-935075Y984148D01*
X-937310Y980948D01*
X-940562Y978763D01*
X-944422Y978001D01*
X-1089558Y978001D01*
X-1097584Y977239D01*
X-1104798Y975055D01*
X-1111453Y971448D01*
X-1117701Y966368D01*
X-1362456Y721614D01*
X-1366164Y719277D01*
X-1370533Y718667D01*
X-1374698Y719988D01*
X-1377950Y722985D01*
X-1379778Y725576D01*
X-1386687Y732536D01*
X-1394764Y738174D01*
X-1403654Y742289D01*
X-1413154Y744880D01*
X-1417269Y745236D01*
X-1421384Y746455D01*
X-1424076Y748842D01*
X-1426768Y746353D01*
X-1430985Y745032D01*
X-1432712Y744880D01*
X-1442212Y742289D01*
X-1451152Y738174D01*
X-1459179Y732536D01*
X-1460754Y730910D01*
X-1464056Y728726D01*
X-1467967Y727964D01*
X-2323896Y727964D01*
X-2327757Y728726D01*
X-2331059Y730910D01*
X-2462276Y862126D01*
X-2464562Y865682D01*
X-2465222Y869848D01*
X-2464155Y873912D01*
X-2461463Y877214D01*
X-2457704Y879144D01*
X-2451811Y880719D01*
X-2442870Y884885D01*
X-2434844Y890524D01*
X-2433269Y892098D01*
X-2429967Y894334D01*
X-2426055Y895096D01*
X-1725371Y895096D01*
X-1721053Y894130D01*
X-1717598Y891438D01*
X-1715566Y887526D01*
X-1712772Y877062D01*
X-1708607Y868171D01*
X-1702968Y860094D01*
X-1696059Y853186D01*
X-1687982Y847547D01*
X-1679092Y843381D01*
X-1669592Y840841D01*
X-1659788Y839978D01*
X-1650034Y840841D01*
X-1640535Y843381D01*
X-1634591Y846124D01*
X-1630375Y847090D01*
X-1626158Y846226D01*
X-1622704Y843686D01*
X-1620570Y839927D01*
X-1620215Y835660D01*
X-1621688Y831596D01*
X-1623263Y829056D01*
X-1626158Y821436D01*
X-1627682Y813460D01*
X-1627682Y805332D01*
X-1626158Y797356D01*
X-1623263Y789736D01*
X-1618945Y782828D01*
X-1613458Y776833D01*
X-1607007Y771956D01*
X-1599692Y768299D01*
X-1591919Y766064D01*
X-1583334Y765302D01*
X-1431848Y765302D01*
X-1427581Y764336D01*
X-1424178Y761746D01*
X-1421434Y764184D01*
X-1417320Y765454D01*
X-1410563Y766064D01*
X-1402740Y768299D01*
X-1395476Y771956D01*
X-1388973Y776833D01*
X-1383487Y782828D01*
X-1379220Y789736D01*
X-1376273Y797356D01*
X-1374749Y805332D01*
X-1374749Y813460D01*
X-1376273Y821436D01*
X-1379220Y829056D01*
X-1383842Y836574D01*
X-1385214Y840028D01*
X-1385214Y843787D01*
X-1383842Y847242D01*
X-1379220Y854760D01*
X-1376273Y862330D01*
X-1374749Y870356D01*
X-1374749Y878484D01*
X-1376273Y886460D01*
X-1379220Y894029D01*
X-1383842Y901547D01*
X-1385214Y905052D01*
X-1385214Y908761D01*
X-1383842Y912266D01*
X-1379220Y919784D01*
X-1376273Y927353D01*
X-1374749Y935329D01*
X-1374749Y943457D01*
X-1376273Y951484D01*
X-1379220Y959053D01*
X-1383842Y966571D01*
X-1385214Y970026D01*
X-1385214Y973785D01*
X-1383842Y977239D01*
X-1379220Y984758D01*
X-1376273Y992327D01*
X-1374749Y1000353D01*
X-1374749Y1008481D01*
X-1376273Y1016457D01*
X-1379220Y1024026D01*
X-1383842Y1031544D01*
X-1385214Y1035050D01*
X-1385214Y1038758D01*
X-1383842Y1042263D01*
X-1379220Y1049782D01*
X-1376273Y1057351D01*
X-1374749Y1065326D01*
X-1374749Y1073454D01*
X-1376273Y1081481D01*
X-1379220Y1089050D01*
X-1383842Y1096568D01*
X-1385214Y1100023D01*
X-1385214Y1103782D01*
X-1383842Y1107236D01*
X-1379220Y1114755D01*
X-1376273Y1122324D01*
X-1374749Y1130350D01*
X-1374749Y1138478D01*
X-1376273Y1146454D01*
X-1379220Y1154023D01*
X-1383842Y1161542D01*
X-1385214Y1165047D01*
X-1385214Y1168755D01*
X-1383842Y1172260D01*
X-1379220Y1179779D01*
X-1376273Y1187348D01*
X-1374749Y1195324D01*
X-1374749Y1203452D01*
X-1376273Y1211478D01*
X-1379220Y1219047D01*
X-1383842Y1226566D01*
X-1385214Y1230020D01*
X-1385214Y1233779D01*
X-1383842Y1237234D01*
X-1379220Y1244752D01*
X-1377594Y1248968D01*
X-1445666Y1248968D01*
X-1447901Y1246073D01*
X-1451051Y1244193D01*
X-1454658Y1243533D01*
X-1547825Y1243533D01*
X-1551381Y1244193D01*
X-1554530Y1246073D01*
X-1556816Y1248968D01*
X-1624888Y1248968D01*
X-1623263Y1244752D01*
X-1618589Y1237234D01*
X-1617268Y1233779D01*
X-1617268Y1230020D01*
X-1618589Y1226566D01*
X-1623263Y1219047D01*
X-1626158Y1211478D01*
X-1627682Y1203452D01*
X-1627682Y1195324D01*
X-1626158Y1187348D01*
X-1623263Y1179779D01*
X-1618589Y1172260D01*
X-1617268Y1168755D01*
X-1617268Y1165047D01*
X-1618589Y1161542D01*
X-1623263Y1154023D01*
X-1626158Y1146454D01*
X-1627682Y1138478D01*
X-1627682Y1130350D01*
X-1626158Y1122324D01*
X-1623263Y1114755D01*
X-1618589Y1107236D01*
X-1617268Y1103782D01*
X-1617268Y1100023D01*
X-1618589Y1096568D01*
X-1623263Y1089050D01*
X-1626158Y1081481D01*
X-1627682Y1073454D01*
X-1627682Y1065326D01*
X-1626158Y1057351D01*
X-1623263Y1049782D01*
X-1618589Y1042263D01*
X-1617268Y1038758D01*
X-1617268Y1035050D01*
X-1618589Y1031544D01*
X-1623263Y1024026D01*
X-1626158Y1016457D01*
X-1627682Y1008481D01*
X-1627682Y1000353D01*
X-1626158Y992327D01*
X-1623263Y984758D01*
X-1618589Y977239D01*
X-1617268Y973785D01*
X-1617268Y970026D01*
X-1618589Y966571D01*
X-1623263Y959053D01*
X-1625142Y954125D01*
X-1627378Y950671D01*
X-1630832Y948334D01*
X-1634896Y947623D01*
X-1638909Y948588D01*
X-1640535Y949299D01*
X-1650034Y951890D01*
X-1658061Y952550D01*
X-1661464Y953465D01*
X-1664360Y955497D01*
X-1669491Y960628D01*
X-1675739Y965758D01*
X-1682394Y969314D01*
X-1689607Y971499D01*
X-1697634Y972312D01*
X-2426055Y972312D01*
X-2429967Y973074D01*
X-2433269Y975258D01*
X-2434844Y976884D01*
X-2442870Y982522D01*
X-2451811Y986637D01*
X-2461310Y989228D01*
X-2471064Y990041D01*
X-2480868Y989228D01*
X-2490368Y986637D01*
X-2499258Y982522D01*
X-2507335Y976884D01*
X-2514244Y969924D01*
X-2519883Y961898D01*
X-2524048Y952957D01*
X-2526588Y943457D01*
X-2527706Y929792D01*
X-2529230Y926592D01*
X-2531719Y924102D01*
X-2534920Y922629D01*
X-2541828Y920750D01*
X-2550718Y916635D01*
X-2558796Y910996D01*
X-2565704Y904036D01*
X-2571343Y896010D01*
X-2575509Y887069D01*
X-2578049Y877569D01*
X-2578912Y867816D01*
X-2578049Y858012D01*
X-2575509Y848512D01*
X-2571343Y839622D01*
X-2565704Y831545D01*
X-2558796Y824636D01*
X-2550718Y818997D01*
X-2541828Y814832D01*
X-2532329Y812292D01*
X-2524302Y811580D01*
X-2520899Y810666D01*
X-2518003Y808634D01*
X-2396032Y686714D01*
X-2393848Y683412D01*
X-2393086Y679551D01*
X-2393848Y675640D01*
X-2396032Y672338D01*
X-2399334Y670153D01*
X-2403246Y669391D01*
X-2615692Y669391D01*
X-2623718Y668578D01*
X-2630982Y666394D01*
X-2637637Y662838D01*
X-2643886Y657707D01*
X-2930448Y371144D01*
X-2935528Y364896D01*
X-2939135Y358241D01*
X-2942386Y347116D01*
X-2944622Y344119D01*
X-2947771Y342188D01*
X-2951429Y341528D01*
X-2977946Y341528D01*
X-2984246Y340817D01*
X-2989732Y338886D01*
X-2994609Y335788D01*
X-2996336Y334111D01*
X-2999587Y331876D01*
X-3003499Y331114D01*
X-3007410Y331876D01*
X-3010662Y334111D01*
X-3012389Y335788D01*
X-3017266Y338886D01*
X-3022752Y340817D01*
X-3029051Y341528D01*
X-3177946Y341528D01*
X-3184245Y340817D01*
X-3189732Y338886D01*
X-3194608Y335788D01*
X-3196336Y334111D01*
X-3199638Y331876D01*
G37*

%LPD*%
G36*
X-3601821Y275183D02*
G01*
X-3605784Y275945D01*
X-3609136Y278180D01*
X-3686962Y356006D01*
X-3689197Y359308D01*
X-3689959Y363220D01*
X-3689959Y1276807D01*
X-3689197Y1280668D01*
X-3686962Y1283970D01*
X-3683660Y1286154D01*
X-3679799Y1286967D01*
X-3675887Y1286154D01*
X-3672586Y1283970D01*
X-3565550Y1176883D01*
X-3563264Y1173480D01*
X-3562553Y1169416D01*
X-3563518Y1165402D01*
X-3565956Y1162151D01*
X-3569512Y1160068D01*
X-3573627Y1159611D01*
X-3583279Y1160424D01*
X-3593033Y1159611D01*
X-3602532Y1157020D01*
X-3611473Y1152906D01*
X-3619500Y1147267D01*
X-3626459Y1140307D01*
X-3632098Y1132281D01*
X-3636213Y1123340D01*
X-3638804Y1113840D01*
X-3639616Y1104087D01*
X-3638804Y1094282D01*
X-3638092Y1091692D01*
X-3637889Y1087424D01*
X-3639413Y1083462D01*
X-3642512Y1080465D01*
X-3647490Y1077315D01*
X-3651605Y1073200D01*
X-3654704Y1068324D01*
X-3656584Y1062837D01*
X-3657295Y1056538D01*
X-3657295Y967689D01*
X-3656584Y961339D01*
X-3654704Y955903D01*
X-3651605Y950976D01*
X-3647490Y946912D01*
X-3642614Y943813D01*
X-3637127Y941933D01*
X-3630828Y941222D01*
X-3546856Y941222D01*
X-3542995Y940409D01*
X-3539693Y938225D01*
X-3537458Y934923D01*
X-3536696Y931062D01*
X-3536696Y923188D01*
X-3537458Y919276D01*
X-3539693Y915974D01*
X-3542995Y913790D01*
X-3546856Y913028D01*
X-3550056Y913028D01*
X-3550056Y870966D01*
X-3546856Y870966D01*
X-3542995Y870203D01*
X-3539693Y867968D01*
X-3537458Y864666D01*
X-3536696Y860806D01*
X-3536696Y823417D01*
X-3537458Y819556D01*
X-3539693Y816254D01*
X-3542995Y814019D01*
X-3546856Y813257D01*
X-3550056Y813257D01*
X-3550056Y771194D01*
X-3546856Y771194D01*
X-3542995Y770432D01*
X-3539693Y768248D01*
X-3537458Y764946D01*
X-3536696Y761034D01*
X-3536696Y382219D01*
X-3537407Y378510D01*
X-3539388Y375310D01*
X-3542385Y373075D01*
X-3545992Y372059D01*
X-3552799Y371500D01*
X-3562299Y368909D01*
X-3571240Y364794D01*
X-3579266Y359156D01*
X-3586226Y352196D01*
X-3591864Y344170D01*
X-3595979Y335229D01*
X-3598570Y325729D01*
X-3599383Y315976D01*
X-3598570Y306171D01*
X-3595979Y296672D01*
X-3592728Y289661D01*
X-3591763Y285750D01*
X-3592423Y281787D01*
X-3594557Y278384D01*
X-3597859Y276047D01*
G37*

%LPC*%
G36*
X-3630828Y771194D02*
G01*
X-3612743Y771194D01*
X-3612743Y813257D01*
X-3657295Y813257D01*
X-3657295Y797661D01*
X-3656584Y791362D01*
X-3654704Y785876D01*
X-3651605Y780999D01*
X-3647490Y776884D01*
X-3642614Y773836D01*
X-3637127Y771906D01*
G37*
G36*
X-3657295Y870966D02*
G01*
X-3612743Y870966D01*
X-3612743Y913028D01*
X-3630828Y913028D01*
X-3637127Y912317D01*
X-3642614Y910386D01*
X-3647490Y907287D01*
X-3651605Y903224D01*
X-3654704Y898296D01*
X-3656584Y892860D01*
X-3657295Y886510D01*
G37*

%LPD*%
G36*
X-3455415Y128676D02*
G01*
X-3459276Y129438D01*
X-3462578Y131622D01*
X-3580841Y249885D01*
X-3583025Y253238D01*
X-3583787Y257200D01*
X-3582924Y261112D01*
X-3580637Y264414D01*
X-3577234Y266547D01*
X-3573272Y267208D01*
X-3569360Y266293D01*
X-3562299Y262991D01*
X-3552799Y260451D01*
X-3543046Y259588D01*
X-3533241Y260451D01*
X-3523742Y262991D01*
X-3514851Y267157D01*
X-3506774Y272796D01*
X-3499865Y279704D01*
X-3494227Y287782D01*
X-3490061Y296672D01*
X-3487521Y306171D01*
X-3486810Y314198D01*
X-3485896Y317601D01*
X-3483864Y320497D01*
X-3471164Y333248D01*
X-3466033Y339496D01*
X-3464356Y342595D01*
X-3461461Y345998D01*
X-3457397Y347776D01*
X-3452926Y347675D01*
X-3448964Y345694D01*
X-3446221Y342188D01*
X-3445256Y337820D01*
X-3445256Y138836D01*
X-3446018Y134924D01*
X-3448202Y131622D01*
X-3451504Y129438D01*
G37*

%LPD*%
G36*
X-1039723Y-58216D02*
G01*
X-1043635Y-57404D01*
X-1046937Y-55219D01*
X-1049121Y-51917D01*
X-1049883Y-48056D01*
X-1049121Y-44145D01*
X-1046937Y-40843D01*
X-736396Y269697D01*
X-731266Y275945D01*
X-727710Y282600D01*
X-725525Y289814D01*
X-724712Y297840D01*
X-724712Y320497D01*
X-723950Y324358D01*
X-721766Y327660D01*
X-720140Y329234D01*
X-714502Y337312D01*
X-710387Y346202D01*
X-707796Y355701D01*
X-706983Y365506D01*
X-707796Y375259D01*
X-710387Y384759D01*
X-714502Y393700D01*
X-720140Y401726D01*
X-727100Y408686D01*
X-735126Y414324D01*
X-744067Y418439D01*
X-753567Y421030D01*
X-763320Y421843D01*
X-773125Y421030D01*
X-782624Y418439D01*
X-791514Y414324D01*
X-799592Y408686D01*
X-806500Y401726D01*
X-812139Y393700D01*
X-816305Y384759D01*
X-818845Y375259D01*
X-819708Y365506D01*
X-818845Y355701D01*
X-816305Y346202D01*
X-812139Y337312D01*
X-806500Y329234D01*
X-804926Y327660D01*
X-802690Y324358D01*
X-801928Y320497D01*
X-801928Y317550D01*
X-802690Y313639D01*
X-804926Y310337D01*
X-920191Y195122D01*
X-923391Y192938D01*
X-927150Y192125D01*
X-930960Y192786D01*
X-934212Y194767D01*
X-936548Y197866D01*
X-937514Y201625D01*
X-937666Y204165D01*
X-940358Y217576D01*
X-944727Y230530D01*
X-950772Y242824D01*
X-955903Y250494D01*
X-957478Y254508D01*
X-957224Y258876D01*
X-955192Y262737D01*
X-951737Y265328D01*
X-947470Y266293D01*
X-945845Y266293D01*
X-937818Y267055D01*
X-930554Y269240D01*
X-923899Y272846D01*
X-917651Y277926D01*
X-906424Y289153D01*
X-903528Y291185D01*
X-900125Y292100D01*
X-892098Y292811D01*
X-882599Y295351D01*
X-873709Y299516D01*
X-865632Y305155D01*
X-858723Y312064D01*
X-853084Y320141D01*
X-848918Y329031D01*
X-846378Y338531D01*
X-845515Y348335D01*
X-846378Y358089D01*
X-848918Y367588D01*
X-853084Y376529D01*
X-858723Y384556D01*
X-865632Y391515D01*
X-873709Y397154D01*
X-882599Y401269D01*
X-892098Y403860D01*
X-901903Y404672D01*
X-911656Y403860D01*
X-921156Y401269D01*
X-928878Y397713D01*
X-932383Y396748D01*
X-936040Y397154D01*
X-939292Y398780D01*
X-995680Y398780D01*
X-995680Y353669D01*
X-996442Y349758D01*
X-998677Y346456D01*
X-1001928Y344271D01*
X-1005840Y343509D01*
X-1076960Y343509D01*
X-1080871Y344271D01*
X-1084122Y346456D01*
X-1086358Y349758D01*
X-1087120Y353669D01*
X-1087120Y398780D01*
X-1135278Y398780D01*
X-1132027Y392176D01*
X-1124407Y380796D01*
X-1115364Y370535D01*
X-1105052Y361492D01*
X-1100480Y358343D01*
X-1097584Y355396D01*
X-1096111Y351485D01*
X-1096314Y347370D01*
X-1098194Y343662D01*
X-1101344Y340969D01*
X-1108913Y336956D01*
X-1115161Y331825D01*
X-1195781Y251206D01*
X-1199540Y248818D01*
X-1203960Y248259D01*
X-1208176Y249682D01*
X-1211427Y252729D01*
X-1212392Y254203D01*
X-1221435Y264464D01*
X-1231696Y273507D01*
X-1243076Y281127D01*
X-1255369Y287172D01*
X-1268323Y291541D01*
X-1281734Y294233D01*
X-1295400Y295148D01*
X-1309065Y294233D01*
X-1322476Y291541D01*
X-1335430Y287172D01*
X-1347724Y281127D01*
X-1359103Y273507D01*
X-1369364Y264464D01*
X-1378407Y254203D01*
X-1386027Y242824D01*
X-1392072Y230530D01*
X-1396441Y217576D01*
X-1399133Y204165D01*
X-1400048Y190500D01*
X-1399133Y176834D01*
X-1396441Y163423D01*
X-1393596Y154940D01*
X-1393037Y151231D01*
X-1393901Y147574D01*
X-1396034Y144475D01*
X-1420266Y120243D01*
X-1423568Y118008D01*
X-1427429Y117246D01*
X-1434592Y117246D01*
X-1438503Y118008D01*
X-1441754Y120243D01*
X-1443990Y123545D01*
X-1444752Y127406D01*
X-1444752Y268681D01*
X-1445463Y274980D01*
X-1447393Y280466D01*
X-1450441Y285343D01*
X-1454556Y289458D01*
X-1459433Y292506D01*
X-1464919Y294436D01*
X-1471218Y295148D01*
X-1627581Y295148D01*
X-1633880Y294436D01*
X-1639366Y292506D01*
X-1644243Y289458D01*
X-1648358Y285343D01*
X-1651406Y280466D01*
X-1653336Y274980D01*
X-1654048Y268681D01*
X-1654048Y127406D01*
X-1654810Y123545D01*
X-1657045Y120243D01*
X-1660296Y118008D01*
X-1664207Y117246D01*
X-1792427Y117246D01*
X-1796338Y118008D01*
X-1799589Y120243D01*
X-1801825Y123545D01*
X-1802587Y127406D01*
X-1802587Y315010D01*
X-1803298Y321360D01*
X-1805228Y326796D01*
X-1808276Y331724D01*
X-1812391Y335788D01*
X-1817268Y338886D01*
X-1822754Y340817D01*
X-1829054Y341528D01*
X-1977948Y341528D01*
X-1984248Y340817D01*
X-1989734Y338886D01*
X-1994611Y335788D01*
X-1996338Y334111D01*
X-1999589Y331876D01*
X-2003501Y331114D01*
X-2007362Y331876D01*
X-2010664Y334111D01*
X-2012391Y335788D01*
X-2017268Y338886D01*
X-2022754Y340817D01*
X-2029053Y341528D01*
X-2177948Y341528D01*
X-2184247Y340817D01*
X-2189734Y338886D01*
X-2194610Y335788D01*
X-2196338Y334111D01*
X-2199589Y331876D01*
X-2203500Y331114D01*
X-2207361Y331876D01*
X-2210663Y334111D01*
X-2212390Y335788D01*
X-2217267Y338886D01*
X-2222754Y340817D01*
X-2229053Y341528D01*
X-2377948Y341528D01*
X-2384247Y340817D01*
X-2389733Y338886D01*
X-2394610Y335788D01*
X-2396337Y334111D01*
X-2399588Y331876D01*
X-2403500Y331114D01*
X-2407361Y331876D01*
X-2410663Y334111D01*
X-2412390Y335788D01*
X-2417267Y338886D01*
X-2422753Y340817D01*
X-2427681Y341376D01*
X-2431288Y342442D01*
X-2434285Y344830D01*
X-2436164Y348081D01*
X-2436723Y351840D01*
X-2435860Y355498D01*
X-2433726Y358648D01*
X-2276602Y515772D01*
X-2273300Y518007D01*
X-2269439Y518769D01*
X-1875942Y518769D01*
X-1872030Y518007D01*
X-1868728Y515772D01*
X-1867154Y514197D01*
X-1859127Y508558D01*
X-1850186Y504393D01*
X-1840687Y501853D01*
X-1830933Y500989D01*
X-1821129Y501853D01*
X-1811629Y504393D01*
X-1802739Y508558D01*
X-1794662Y514197D01*
X-1787753Y521106D01*
X-1782114Y529183D01*
X-1777949Y538073D01*
X-1775409Y547573D01*
X-1774545Y557377D01*
X-1775409Y567131D01*
X-1779371Y581660D01*
X-1778711Y585622D01*
X-1776526Y589076D01*
X-1773224Y591362D01*
X-1769262Y592175D01*
X-1458772Y592175D01*
X-1454861Y591413D01*
X-1451559Y589178D01*
X-1449374Y585876D01*
X-1448612Y582015D01*
X-1449374Y578104D01*
X-1451559Y574802D01*
X-1488033Y538327D01*
X-1491538Y536041D01*
X-1495704Y535381D01*
X-1499717Y536397D01*
X-1509369Y541172D01*
X-1522323Y545541D01*
X-1535734Y548233D01*
X-1549400Y549148D01*
X-1563065Y548233D01*
X-1576476Y545541D01*
X-1589430Y541172D01*
X-1601724Y535127D01*
X-1613103Y527507D01*
X-1623364Y518464D01*
X-1632407Y508203D01*
X-1640027Y496824D01*
X-1646072Y484530D01*
X-1650441Y471576D01*
X-1653133Y458165D01*
X-1654048Y444500D01*
X-1653133Y430834D01*
X-1650441Y417423D01*
X-1646072Y404469D01*
X-1640027Y392176D01*
X-1632407Y380796D01*
X-1623364Y370535D01*
X-1613103Y361492D01*
X-1601724Y353872D01*
X-1589430Y347827D01*
X-1576476Y343458D01*
X-1563065Y340766D01*
X-1549400Y339852D01*
X-1535734Y340766D01*
X-1522323Y343458D01*
X-1509369Y347827D01*
X-1497076Y353872D01*
X-1485696Y361492D01*
X-1475435Y370535D01*
X-1466392Y380796D01*
X-1458772Y392176D01*
X-1452727Y404469D01*
X-1448358Y417423D01*
X-1445666Y430834D01*
X-1444752Y444500D01*
X-1445666Y458165D01*
X-1446834Y464007D01*
X-1446936Y467309D01*
X-1445971Y470458D01*
X-1444040Y473151D01*
X-1214475Y702767D01*
X-1211173Y704951D01*
X-1207262Y705713D01*
X-971499Y705713D01*
X-967587Y704951D01*
X-964285Y702767D01*
X-962710Y701141D01*
X-954684Y695502D01*
X-945743Y691388D01*
X-936244Y688797D01*
X-926490Y687984D01*
X-916686Y688797D01*
X-907186Y691388D01*
X-898296Y695502D01*
X-890219Y701141D01*
X-883310Y708101D01*
X-877671Y716127D01*
X-873506Y725068D01*
X-870966Y734568D01*
X-870102Y744321D01*
X-870966Y754227D01*
X-870458Y758393D01*
X-868324Y762000D01*
X-864920Y764438D01*
X-860856Y765302D01*
X-728065Y765302D01*
X-719480Y766064D01*
X-711708Y768299D01*
X-706628Y770534D01*
X-704291Y770788D01*
X-611276Y770788D01*
X-608279Y770382D01*
X-605586Y769061D01*
X-593191Y760730D01*
X-580796Y754583D01*
X-567639Y750163D01*
X-554075Y747420D01*
X-540258Y746556D01*
X-526440Y747420D01*
X-512876Y750163D01*
X-499719Y754583D01*
X-487324Y760730D01*
X-475792Y768400D01*
X-465378Y777544D01*
X-456234Y787958D01*
X-448564Y799490D01*
X-442417Y811885D01*
X-437997Y825042D01*
X-435254Y838606D01*
X-434390Y852424D01*
X-435254Y866241D01*
X-437997Y879805D01*
X-442417Y892962D01*
X-448564Y905357D01*
X-456234Y916889D01*
X-465378Y927303D01*
X-475792Y936447D01*
X-486867Y943864D01*
X-489712Y946658D01*
X-491235Y950315D01*
X-491235Y954278D01*
X-489712Y957935D01*
X-486867Y960729D01*
X-475538Y968298D01*
X-465124Y977442D01*
X-455980Y987856D01*
X-448309Y999388D01*
X-442163Y1011783D01*
X-437743Y1024940D01*
X-435000Y1038504D01*
X-434136Y1052322D01*
X-435000Y1066139D01*
X-437743Y1079703D01*
X-442163Y1092860D01*
X-448309Y1105255D01*
X-455980Y1116787D01*
X-465124Y1127201D01*
X-475538Y1136345D01*
X-487070Y1144016D01*
X-499465Y1150162D01*
X-512622Y1154582D01*
X-526186Y1157325D01*
X-540004Y1158189D01*
X-553821Y1157325D01*
X-567385Y1154582D01*
X-580542Y1150162D01*
X-593191Y1143863D01*
X-596696Y1142390D01*
X-600557Y1142288D01*
X-604113Y1143660D01*
X-606958Y1146251D01*
X-608634Y1149705D01*
X-609701Y1153668D01*
X-613867Y1162608D01*
X-619506Y1170635D01*
X-626414Y1177594D01*
X-634492Y1183233D01*
X-643382Y1187348D01*
X-652881Y1189939D01*
X-662686Y1190752D01*
X-672439Y1189939D01*
X-681939Y1187348D01*
X-687273Y1184910D01*
X-691540Y1183944D01*
X-754583Y1183944D01*
X-756869Y1181049D01*
X-760018Y1179169D01*
X-763574Y1178509D01*
X-856742Y1178509D01*
X-860348Y1179169D01*
X-863498Y1181049D01*
X-865733Y1183944D01*
X-934415Y1183944D01*
X-934262Y1182979D01*
X-935075Y1179169D01*
X-937310Y1175918D01*
X-940562Y1173784D01*
X-944422Y1173022D01*
X-1072540Y1173022D01*
X-1076401Y1173784D01*
X-1079703Y1175969D01*
X-1329944Y1426210D01*
X-1332179Y1429562D01*
X-1332941Y1433525D01*
X-1332077Y1437487D01*
X-1329740Y1440789D01*
X-1326337Y1442923D01*
X-1322374Y1443583D01*
X-1318463Y1442618D01*
X-1316685Y1441805D01*
X-1307185Y1439214D01*
X-1297381Y1438402D01*
X-1287627Y1439214D01*
X-1278128Y1441805D01*
X-1269187Y1445920D01*
X-1261160Y1451559D01*
X-1254201Y1458518D01*
X-1248562Y1466545D01*
X-1244447Y1475486D01*
X-1241856Y1484985D01*
X-1241044Y1494739D01*
X-1241856Y1504543D01*
X-1244447Y1514043D01*
X-1248562Y1522933D01*
X-1254607Y1531569D01*
X-1256284Y1535531D01*
X-1256182Y1539798D01*
X-1254353Y1543659D01*
X-1251051Y1546402D01*
X-1246936Y1547571D01*
X-1242720Y1546910D01*
X-1239113Y1544574D01*
X-931976Y1237437D01*
X-929081Y1234236D01*
X-927862Y1230833D01*
X-927912Y1227175D01*
X-929233Y1223822D01*
X-932180Y1219047D01*
X-933805Y1214831D01*
X-865733Y1214831D01*
X-863498Y1217726D01*
X-860348Y1219606D01*
X-856742Y1220266D01*
X-763574Y1220266D01*
X-760018Y1219606D01*
X-756869Y1217726D01*
X-754583Y1214831D01*
X-686511Y1214831D01*
X-688136Y1219047D01*
X-692810Y1226566D01*
X-694131Y1230020D01*
X-694131Y1233779D01*
X-692810Y1237234D01*
X-688136Y1244752D01*
X-685241Y1252321D01*
X-683717Y1260348D01*
X-683717Y1268476D01*
X-685241Y1276451D01*
X-688136Y1284020D01*
X-691489Y1289456D01*
X-692962Y1293723D01*
X-692454Y1298194D01*
X-690067Y1302004D01*
X-661365Y1330655D01*
X-657758Y1332992D01*
X-653491Y1333601D01*
X-649376Y1332433D01*
X-646125Y1329690D01*
X-644296Y1325778D01*
X-644194Y1321511D01*
X-645261Y1316329D01*
X-646125Y1302512D01*
X-645261Y1288694D01*
X-642518Y1275130D01*
X-638098Y1261973D01*
X-631952Y1249578D01*
X-624281Y1238046D01*
X-615137Y1227632D01*
X-604723Y1218488D01*
X-593191Y1210818D01*
X-580796Y1204671D01*
X-567639Y1200251D01*
X-554075Y1197508D01*
X-540258Y1196644D01*
X-526440Y1197508D01*
X-512876Y1200251D01*
X-499719Y1204671D01*
X-487324Y1210818D01*
X-475792Y1218488D01*
X-465378Y1227632D01*
X-456234Y1238046D01*
X-448564Y1249578D01*
X-442417Y1261973D01*
X-437997Y1275130D01*
X-435254Y1288694D01*
X-434390Y1302512D01*
X-435254Y1316329D01*
X-437997Y1329893D01*
X-442417Y1343050D01*
X-448564Y1355445D01*
X-452323Y1361084D01*
X-453593Y1363776D01*
X-453999Y1366723D01*
X-453999Y1448460D01*
X-533501Y1448460D01*
X-537819Y1449425D01*
X-541324Y1452118D01*
X-543306Y1456029D01*
X-546150Y1466850D01*
X-550265Y1475740D01*
X-555904Y1483766D01*
X-562864Y1490726D01*
X-570890Y1496364D01*
X-579831Y1500479D01*
X-589330Y1503070D01*
X-599084Y1503883D01*
X-608888Y1503070D01*
X-618388Y1500479D01*
X-627278Y1496364D01*
X-635355Y1490726D01*
X-642264Y1483766D01*
X-647903Y1475740D01*
X-652068Y1466799D01*
X-654608Y1457299D01*
X-655320Y1449273D01*
X-656234Y1445869D01*
X-658266Y1442974D01*
X-670966Y1430274D01*
X-674217Y1428089D01*
X-678078Y1427276D01*
X-681939Y1428038D01*
X-685241Y1430172D01*
X-687476Y1433372D01*
X-688340Y1437233D01*
X-687628Y1441094D01*
X-686511Y1443939D01*
X-754583Y1443939D01*
X-756869Y1441043D01*
X-760018Y1439164D01*
X-763574Y1438503D01*
X-856742Y1438503D01*
X-860348Y1439164D01*
X-863498Y1441043D01*
X-865733Y1443939D01*
X-933805Y1443939D01*
X-932180Y1439773D01*
X-927557Y1432255D01*
X-926185Y1428750D01*
X-926185Y1425041D01*
X-927557Y1421536D01*
X-932180Y1414018D01*
X-935126Y1406448D01*
X-936650Y1398473D01*
X-936650Y1390345D01*
X-935126Y1382318D01*
X-931976Y1374140D01*
X-931265Y1370279D01*
X-932129Y1366418D01*
X-934364Y1363167D01*
X-937615Y1361033D01*
X-941476Y1360322D01*
X-945337Y1361084D01*
X-948588Y1363268D01*
X-1312976Y1727657D01*
X-1319225Y1732737D01*
X-1325880Y1736343D01*
X-1333093Y1738528D01*
X-1341120Y1739290D01*
X-1604264Y1739290D01*
X-1608429Y1740204D01*
X-1611833Y1742693D01*
X-1613966Y1746402D01*
X-1614373Y1750618D01*
X-1613001Y1754682D01*
X-1610106Y1757781D01*
X-1606194Y1760524D01*
X-1604619Y1762099D01*
X-1601317Y1764334D01*
X-1597406Y1765096D01*
X-871575Y1765096D01*
X-867714Y1764334D01*
X-864412Y1762099D01*
X-862837Y1760524D01*
X-854760Y1754886D01*
X-845870Y1750720D01*
X-836371Y1748180D01*
X-826566Y1747316D01*
X-816813Y1748180D01*
X-807313Y1750720D01*
X-798372Y1754886D01*
X-790346Y1760524D01*
X-783386Y1767433D01*
X-777748Y1775510D01*
X-773633Y1784400D01*
X-771042Y1793900D01*
X-770229Y1803704D01*
X-771042Y1813458D01*
X-773633Y1822957D01*
X-777748Y1831898D01*
X-783386Y1839925D01*
X-790346Y1846884D01*
X-798372Y1852523D01*
X-807313Y1856638D01*
X-816813Y1859229D01*
X-826566Y1860042D01*
X-836371Y1859229D01*
X-845870Y1856638D01*
X-854760Y1852523D01*
X-862837Y1846884D01*
X-864412Y1845259D01*
X-867714Y1843074D01*
X-871575Y1842312D01*
X-1028344Y1842312D01*
X-1032510Y1843176D01*
X-1035964Y1845716D01*
X-1038047Y1849424D01*
X-1038453Y1853641D01*
X-1037082Y1857654D01*
X-1034186Y1860804D01*
X-1029004Y1864410D01*
X-1022096Y1871319D01*
X-1016457Y1879396D01*
X-1012291Y1888286D01*
X-1009751Y1897786D01*
X-1008887Y1907590D01*
X-1009751Y1917344D01*
X-1012291Y1926843D01*
X-1016457Y1935784D01*
X-1022096Y1943811D01*
X-1029004Y1950770D01*
X-1037082Y1956409D01*
X-1045971Y1960524D01*
X-1055471Y1963115D01*
X-1065276Y1963928D01*
X-1075029Y1963115D01*
X-1084529Y1960524D01*
X-1093470Y1956409D01*
X-1101496Y1950770D01*
X-1103071Y1949145D01*
X-1106373Y1946960D01*
X-1110284Y1946198D01*
X-3391255Y1946198D01*
X-3399282Y1945386D01*
X-3406495Y1943201D01*
X-3413150Y1939645D01*
X-3419398Y1934514D01*
X-3433521Y1920392D01*
X-3435959Y1917446D01*
X-3439058Y1914906D01*
X-3442868Y1913788D01*
X-3446830Y1914194D01*
X-3450285Y1916074D01*
X-3452825Y1919173D01*
X-3453942Y1922983D01*
X-3454196Y1926031D01*
X-3456736Y1935530D01*
X-3460902Y1944471D01*
X-3466541Y1952498D01*
X-3473450Y1959457D01*
X-3481527Y1965096D01*
X-3494024Y1970989D01*
X-3496614Y1973986D01*
X-3497884Y1977796D01*
X-3497630Y1981758D01*
X-3495801Y1985314D01*
X-3492804Y1987905D01*
X-3488994Y1989124D01*
X-3480308Y1990140D01*
X-3458514Y1991004D01*
X-597865Y1991004D01*
X-593598Y1990039D01*
X-590143Y1987397D01*
X-588060Y1983536D01*
X-587857Y1979218D01*
X-589432Y1975154D01*
X-593140Y1971802D01*
X-605231Y1962302D01*
X-616102Y1951431D01*
X-625602Y1939340D01*
X-633577Y1926132D01*
X-639927Y1912112D01*
X-644499Y1897430D01*
X-647242Y1882292D01*
X-648208Y1866900D01*
X-647242Y1851507D01*
X-644499Y1836369D01*
X-639927Y1821688D01*
X-633577Y1807667D01*
X-625602Y1794459D01*
X-616102Y1782368D01*
X-605231Y1771497D01*
X-593140Y1761998D01*
X-579932Y1754022D01*
X-565912Y1747672D01*
X-551230Y1743100D01*
X-536092Y1740357D01*
X-520700Y1739392D01*
X-505307Y1740357D01*
X-490169Y1743100D01*
X-475488Y1747672D01*
X-461467Y1754022D01*
X-448259Y1761998D01*
X-436168Y1771497D01*
X-425297Y1782368D01*
X-415798Y1794459D01*
X-407822Y1807667D01*
X-401472Y1821688D01*
X-396900Y1836369D01*
X-394157Y1851507D01*
X-393192Y1866900D01*
X-394157Y1882292D01*
X-396900Y1897430D01*
X-401472Y1912112D01*
X-407822Y1926132D01*
X-415798Y1939340D01*
X-425297Y1951431D01*
X-436168Y1962302D01*
X-448360Y1971852D01*
X-451561Y1974951D01*
X-453135Y1979066D01*
X-452831Y1983486D01*
X-450646Y1987346D01*
X-447040Y1989937D01*
X-442722Y1990699D01*
X-427329Y1990089D01*
X-405942Y1987499D01*
X-384860Y1983282D01*
X-364134Y1977440D01*
X-343966Y1969922D01*
X-324408Y1960880D01*
X-305663Y1950364D01*
X-287782Y1938375D01*
X-270916Y1925015D01*
X-255117Y1910384D01*
X-240538Y1894586D01*
X-227279Y1877669D01*
X-215341Y1859737D01*
X-204825Y1840941D01*
X-195834Y1821383D01*
X-188417Y1801215D01*
X-182626Y1780489D01*
X-178460Y1759356D01*
X-175971Y1738020D01*
X-175107Y1716227D01*
X-175107Y1660245D01*
X-175971Y1656080D01*
X-178460Y1652676D01*
X-182118Y1650542D01*
X-186334Y1650136D01*
X-190347Y1651406D01*
X-193497Y1654251D01*
X-203555Y1668068D01*
X-216408Y1682597D01*
X-230632Y1695805D01*
X-246075Y1707642D01*
X-262534Y1717852D01*
X-266344Y1719732D01*
X-266344Y1636115D01*
X-185267Y1636115D01*
X-181406Y1635353D01*
X-178104Y1633169D01*
X-175869Y1629867D01*
X-175107Y1625955D01*
X-175107Y1458620D01*
X-175869Y1454708D01*
X-178104Y1451406D01*
X-181406Y1449222D01*
X-185267Y1448460D01*
X-266344Y1448460D01*
X-266344Y1364843D01*
X-262534Y1366723D01*
X-246075Y1376934D01*
X-230632Y1388719D01*
X-216408Y1401978D01*
X-203555Y1416507D01*
X-193497Y1430324D01*
X-190347Y1433169D01*
X-186334Y1434439D01*
X-182118Y1434033D01*
X-178460Y1431899D01*
X-175971Y1428496D01*
X-175107Y1424330D01*
X-175107Y480415D01*
X-175971Y476250D01*
X-178460Y472846D01*
X-182118Y470712D01*
X-186334Y470306D01*
X-190347Y471576D01*
X-193497Y474421D01*
X-203555Y488238D01*
X-216408Y502767D01*
X-230632Y515975D01*
X-246075Y527812D01*
X-262534Y538022D01*
X-266344Y539902D01*
X-266344Y456285D01*
X-185267Y456285D01*
X-181406Y455523D01*
X-178104Y453339D01*
X-175869Y450037D01*
X-175107Y446125D01*
X-175107Y278790D01*
X-175869Y274878D01*
X-178104Y271576D01*
X-181406Y269392D01*
X-185267Y268630D01*
X-266344Y268630D01*
X-266344Y185013D01*
X-262534Y186893D01*
X-246075Y197104D01*
X-230632Y208889D01*
X-216408Y222148D01*
X-203555Y236677D01*
X-193497Y250494D01*
X-190347Y253339D01*
X-186334Y254609D01*
X-182118Y254203D01*
X-178460Y252069D01*
X-175971Y248666D01*
X-175107Y244500D01*
X-175107Y216204D01*
X-176022Y194005D01*
X-178562Y172618D01*
X-182829Y151536D01*
X-188671Y130810D01*
X-196138Y110642D01*
X-205181Y91135D01*
X-215747Y72390D01*
X-227736Y54508D01*
X-241046Y37592D01*
X-255676Y21844D01*
X-271526Y7264D01*
X-288442Y-6045D01*
X-306374Y-17983D01*
X-325120Y-28448D01*
X-344678Y-37439D01*
X-364896Y-44856D01*
X-385622Y-50698D01*
X-406704Y-54864D01*
X-428091Y-57353D01*
X-439318Y-57759D01*
X-443484Y-57048D01*
X-447040Y-54711D01*
X-449275Y-51155D01*
X-449884Y-46939D01*
X-448716Y-42875D01*
X-445973Y-39624D01*
X-436168Y-31902D01*
X-425297Y-21031D01*
X-415798Y-8940D01*
X-407822Y4267D01*
X-401472Y18288D01*
X-396900Y32969D01*
X-394157Y48107D01*
X-393192Y63500D01*
X-394157Y78892D01*
X-396900Y94030D01*
X-401472Y108712D01*
X-407822Y122732D01*
X-415798Y135940D01*
X-425297Y148031D01*
X-436168Y158902D01*
X-451713Y171196D01*
X-453440Y174193D01*
X-453999Y177647D01*
X-453999Y268630D01*
X-537514Y268630D01*
X-533349Y260604D01*
X-522681Y244398D01*
X-510540Y229260D01*
X-496976Y215341D01*
X-485597Y205740D01*
X-482904Y202234D01*
X-481990Y197916D01*
X-482955Y193649D01*
X-485648Y190144D01*
X-489559Y188163D01*
X-493979Y187960D01*
X-505307Y190042D01*
X-520700Y191008D01*
X-536092Y190042D01*
X-551230Y187299D01*
X-565912Y182727D01*
X-579932Y176377D01*
X-593140Y168402D01*
X-605231Y158902D01*
X-616102Y148031D01*
X-625602Y135940D01*
X-633577Y122732D01*
X-639927Y108712D01*
X-644499Y94030D01*
X-647242Y78892D01*
X-648208Y63500D01*
X-647242Y48107D01*
X-644499Y32969D01*
X-639927Y18288D01*
X-633577Y4267D01*
X-625602Y-8940D01*
X-616102Y-21031D01*
X-605231Y-31902D01*
X-594918Y-40030D01*
X-592226Y-43230D01*
X-591058Y-47193D01*
X-591566Y-51358D01*
X-593699Y-54914D01*
X-597103Y-57353D01*
X-601167Y-58216D01*
G37*

%LPC*%
G36*
X-1295400Y339852D02*
G01*
X-1281734Y340766D01*
X-1268323Y343458D01*
X-1255369Y347827D01*
X-1243076Y353872D01*
X-1231696Y361492D01*
X-1221435Y370535D01*
X-1212392Y380796D01*
X-1204772Y392176D01*
X-1198727Y404469D01*
X-1194358Y417423D01*
X-1191666Y430834D01*
X-1190752Y444500D01*
X-1191666Y458165D01*
X-1194358Y471576D01*
X-1198727Y484530D01*
X-1204772Y496824D01*
X-1212392Y508203D01*
X-1221435Y518464D01*
X-1231696Y527507D01*
X-1243076Y535127D01*
X-1255369Y541172D01*
X-1268323Y545541D01*
X-1281734Y548233D01*
X-1295400Y549148D01*
X-1309065Y548233D01*
X-1322476Y545541D01*
X-1335430Y541172D01*
X-1347724Y535127D01*
X-1359103Y527507D01*
X-1369364Y518464D01*
X-1378407Y508203D01*
X-1386027Y496824D01*
X-1392072Y484530D01*
X-1396441Y471576D01*
X-1399133Y458165D01*
X-1400048Y444500D01*
X-1399133Y430834D01*
X-1396441Y417423D01*
X-1392072Y404469D01*
X-1386027Y392176D01*
X-1378407Y380796D01*
X-1369364Y370535D01*
X-1359103Y361492D01*
X-1347724Y353872D01*
X-1335430Y347827D01*
X-1322476Y343458D01*
X-1309065Y340766D01*
G37*
G36*
X-537514Y456285D02*
G01*
X-453999Y456285D01*
X-453999Y556158D01*
X-493674Y556158D01*
X-493674Y492455D01*
X-494538Y488391D01*
X-496925Y484987D01*
X-500532Y482854D01*
X-508000Y480415D01*
X-524865Y477215D01*
X-533349Y464312D01*
G37*
G36*
X-1135278Y490220D02*
G01*
X-1087120Y490220D01*
X-1087120Y538378D01*
X-1093724Y535127D01*
X-1105103Y527507D01*
X-1115364Y518464D01*
X-1124407Y508203D01*
X-1132027Y496824D01*
G37*
G36*
X-995680Y490220D02*
G01*
X-947521Y490220D01*
X-950772Y496824D01*
X-958392Y508203D01*
X-967435Y518464D01*
X-977696Y527507D01*
X-989076Y535127D01*
X-995680Y538378D01*
G37*
G36*
X-586333Y507542D02*
G01*
X-586333Y556158D01*
X-634949Y556158D01*
X-631698Y549554D01*
X-624027Y538022D01*
X-614883Y527608D01*
X-604469Y518464D01*
X-592937Y510793D01*
G37*
G36*
X-493674Y648817D02*
G01*
X-445058Y648817D01*
X-448309Y655421D01*
X-455980Y666953D01*
X-465124Y677367D01*
X-475538Y686511D01*
X-487070Y694182D01*
X-493674Y697433D01*
G37*
G36*
X-634949Y648817D02*
G01*
X-586333Y648817D01*
X-586333Y697433D01*
X-592937Y694182D01*
X-604469Y686511D01*
X-614883Y677367D01*
X-624027Y666953D01*
X-631698Y655421D01*
G37*
G36*
X-933805Y1474825D02*
G01*
X-866902Y1474825D01*
X-866902Y1508963D01*
X-933805Y1508963D01*
X-932180Y1504746D01*
X-927557Y1497228D01*
X-926185Y1493774D01*
X-926185Y1490014D01*
X-927557Y1486560D01*
X-932180Y1479042D01*
G37*
G36*
X-753414Y1474825D02*
G01*
X-686511Y1474825D01*
X-688136Y1479042D01*
X-692810Y1486560D01*
X-694131Y1490014D01*
X-694131Y1493774D01*
X-692810Y1497228D01*
X-688136Y1504746D01*
X-686511Y1508963D01*
X-753414Y1508963D01*
G37*
G36*
X-865784Y1539544D02*
G01*
X-863955Y1542338D01*
X-860653Y1544523D01*
X-856742Y1545285D01*
X-763574Y1545285D01*
X-760018Y1544624D01*
X-756869Y1542745D01*
X-754583Y1539849D01*
X-686511Y1539849D01*
X-688136Y1544015D01*
X-692810Y1551533D01*
X-694131Y1555038D01*
X-694131Y1558747D01*
X-692810Y1562252D01*
X-688136Y1569770D01*
X-685241Y1577340D01*
X-683717Y1585315D01*
X-683717Y1593443D01*
X-685241Y1601470D01*
X-688136Y1609039D01*
X-692810Y1616557D01*
X-694131Y1620012D01*
X-694131Y1623771D01*
X-692810Y1627225D01*
X-688136Y1634744D01*
X-685241Y1642364D01*
X-683717Y1650339D01*
X-683717Y1658467D01*
X-685241Y1666443D01*
X-688136Y1674063D01*
X-692454Y1680972D01*
X-697890Y1686966D01*
X-704392Y1691843D01*
X-711708Y1695500D01*
X-719480Y1697736D01*
X-728065Y1698498D01*
X-892302Y1698498D01*
X-900836Y1697736D01*
X-908659Y1695500D01*
X-915924Y1691843D01*
X-922426Y1686966D01*
X-927912Y1680972D01*
X-932180Y1674063D01*
X-935126Y1666443D01*
X-936650Y1658467D01*
X-936650Y1650339D01*
X-935126Y1642364D01*
X-932180Y1634744D01*
X-927557Y1627225D01*
X-926185Y1623771D01*
X-926185Y1620012D01*
X-927557Y1616557D01*
X-932180Y1609039D01*
X-935126Y1601470D01*
X-936650Y1593443D01*
X-936650Y1585315D01*
X-935126Y1577340D01*
X-932180Y1569770D01*
X-927557Y1562252D01*
X-926185Y1558747D01*
X-926185Y1555038D01*
X-927557Y1551533D01*
X-932180Y1544015D01*
X-933805Y1539849D01*
X-865733Y1539849D01*
G37*
G36*
X-537514Y1636115D02*
G01*
X-453999Y1636115D01*
X-453999Y1719681D01*
X-466191Y1712925D01*
X-482142Y1701901D01*
X-496976Y1689404D01*
X-510540Y1675485D01*
X-522681Y1660347D01*
X-533349Y1644142D01*
G37*

%LPD*%
D10*
X-2909150Y1534096D02*
G01*
X-3012732Y1637677D01*
X-3103486Y1637677D01*
X-3103486Y1765592D02*
G01*
X-3103486Y1637677D01*
X-1830920Y557364D02*
G01*
X-2289619Y557364D01*
X-2503487Y343496D01*
X-2503487Y215582D02*
G01*
X-2503487Y343496D01*
X-2613545Y523836D02*
G01*
X-2703487Y433895D01*
X-2703487Y215582D01*
X-540245Y852436D02*
G01*
X-583272Y809409D01*
X-810171Y809409D01*
X-539991Y1052334D02*
G01*
X-717918Y874407D01*
X-810171Y874407D01*
X-1501203Y1654416D02*
G01*
X-1411135Y1654416D01*
X-1297393Y1540675D01*
X-1297393Y1494751D01*
X-1501203Y1394421D02*
G01*
X-1648345Y1394421D01*
X-810171Y1264399D02*
G01*
X-904328Y1264399D01*
X-1340624Y1700695D01*
X-1748878Y1700695D01*
X-1832825Y1616748D01*
X-826579Y1803692D02*
G01*
X-1642427Y1803692D01*
X-810171Y1329423D02*
G01*
X-717207Y1329423D01*
X-599097Y1447533D01*
X-3460305Y1566024D02*
G01*
X-3602570Y1566024D01*
X-3674452Y1494142D01*
X-3674452Y1340421D01*
X-3498100Y1164069D01*
X-3498100Y360895D01*
X-3543033Y315963D01*
X-763333Y365493D02*
G01*
X-763333Y297345D01*
X-1075169Y-14490D01*
X-3453904Y-14490D01*
X-3662794Y194398D01*
X-3583266Y1104074D02*
G01*
X-3581387Y1102194D01*
X-3581387Y1012101D01*
X-3439528Y612076D02*
G01*
X-3439528Y1012964D01*
X-3434016Y1018476D01*
X-2713443Y1614919D02*
G01*
X-2703487Y1624876D01*
X-2703487Y1765592D01*
X-1659801Y896353D02*
G01*
X-1697139Y933691D01*
X-2471077Y933691D01*
X-2503487Y1765592D02*
G01*
X-2503487Y1637677D01*
X-2597696Y1591602D02*
G01*
X-2551620Y1637677D01*
X-2503487Y1637677D01*
X-1295387Y190512D02*
G01*
X-1407248Y78651D01*
X-3390404Y78651D01*
X-3406635Y94881D01*
X-3406635Y338950D01*
X-2451544Y1294041D01*
X-2451544Y1297368D01*
X-1422946Y689343D02*
G01*
X-2344077Y689343D01*
X-2522537Y867803D01*
X-2903486Y1765592D02*
G01*
X-2903486Y1637677D01*
X-2834754Y1600441D02*
G01*
X-2871990Y1637677D01*
X-2903486Y1637677D01*
X-2903486Y215582D02*
G01*
X-2903486Y343496D01*
X-2903486Y343496D02*
G01*
X-2616212Y630770D01*
X-1398689Y630770D01*
X-1090053Y939406D01*
X-810171Y939406D01*
X-810171Y1134402D02*
G01*
X-662673Y1134402D01*
X-1501203Y1459420D02*
G01*
X-1417739Y1459420D01*
X-1092720Y1134402D01*
X-810171Y1134402D01*
X-3581387Y1757514D02*
G01*
X-3488474Y1757514D01*
X-3488474Y1757514D02*
G01*
X-3488474Y1664601D01*
X-3481920Y1658048D01*
X-1549387Y444512D02*
G01*
X-1527289Y444512D01*
X-1227467Y744334D01*
X-926477Y744334D01*
X-1501203Y1589417D02*
G01*
X-1501863Y1590078D01*
X-1663687Y1590078D01*
X-901890Y348322D02*
G01*
X-945324Y304888D01*
X-1087488Y304888D01*
X-1171003Y221373D01*
X-1171003Y162598D01*
X-1299349Y34251D01*
X-3419792Y34251D01*
X-3728554Y343014D01*
X-3728554Y1704174D01*
X-3710901Y1721827D01*
X-3710901Y1807832D01*
X-3602469Y1916264D01*
X-3509708Y1916264D01*
X-3581387Y1417510D02*
G01*
X-3488474Y1417510D01*
X-3488474Y1417510D02*
G01*
X-2239048Y1417510D01*
X-2145068Y1323530D01*
X-3488474Y1417510D02*
G01*
X-3401733Y1504251D01*
X-3401733Y1590306D01*
X-3406584Y1595158D01*
X-3406584Y1892744D01*
X-3391750Y1907578D01*
X-1065263Y1907578D01*
X-539991Y602500D02*
G01*
X-883399Y602500D01*
X-1041387Y444512D01*
X-1903488Y1765592D02*
G01*
X-1903488Y1637677D01*
X-810171Y1459420D02*
G01*
X-810171Y1524419D01*
X-1903488Y1400594D02*
G01*
X-1767293Y1264399D01*
X-1501203Y1264399D01*
X-1903488Y1637677D02*
G01*
X-1903488Y1400594D01*
X-1800593Y1765592D02*
G01*
X-1780120Y1745119D01*
X-1175296Y1745119D01*
X-954595Y1524419D01*
X-810171Y1524419D01*
X-1903488Y1765592D02*
G01*
X-1800593Y1765592D01*
X-424319Y1524419D02*
G01*
X-810171Y1524419D01*
X-360159Y1542300D02*
G01*
X-406438Y1542300D01*
X-424319Y1524419D01*
X-424319Y1524419D02*
G01*
X-424319Y1247025D01*
X-478345Y1192999D01*
X-803770Y1192999D01*
X-810171Y1199400D01*
X-3581387Y842098D02*
G01*
X-3581387Y769200D01*
X-3349891Y478548D02*
G01*
X-3447427Y381012D01*
X-3447427Y314718D01*
X-3516591Y245554D01*
X-3568255Y245554D01*
X-3618674Y295973D01*
X-3618674Y731913D01*
X-3581387Y769200D01*
X-2088654Y1382458D02*
G01*
X-2072398Y1382458D01*
X-1903488Y1400594D02*
G01*
X-2054263Y1400594D01*
X-2072398Y1382458D01*
X-2072398Y1382458D02*
G01*
X-2072398Y1311465D01*
X-2145093Y1238770D01*
X-2343061Y1238770D01*
X-2886697Y695134D01*
D11*
G01*
X-3581400Y1417497D03*
G01*
X-3581400Y1757502D03*
D12*
G01*
X-3581400Y842103D03*
G01*
X-3581400Y1012106D03*
D13*
G01*
X-1501216Y1654403D03*
G01*
X-1501216Y1589404D03*
G01*
X-1501216Y1524406D03*
G01*
X-1501216Y1459407D03*
G01*
X-1501216Y1394409D03*
G01*
X-1501216Y1329410D03*
G01*
X-1501216Y1264386D03*
G01*
X-1501216Y1199387D03*
G01*
X-1501216Y1134389D03*
G01*
X-1501216Y1069390D03*
G01*
X-1501216Y1004392D03*
G01*
X-1501216Y939393D03*
G01*
X-1501216Y874395D03*
G01*
X-1501216Y809396D03*
G01*
X-810183Y1654403D03*
G01*
X-810183Y1589404D03*
G01*
X-810183Y1524406D03*
G01*
X-810183Y1459407D03*
G01*
X-810183Y1394409D03*
G01*
X-810183Y1329410D03*
G01*
X-810183Y1264386D03*
G01*
X-810183Y1199387D03*
G01*
X-810183Y1134389D03*
G01*
X-810183Y1069390D03*
G01*
X-810183Y1004392D03*
G01*
X-810183Y939393D03*
G01*
X-810183Y874395D03*
G01*
X-810183Y809396D03*
D14*
G01*
X-3303488Y215592D03*
G01*
X-3103488Y215592D03*
G01*
X-2903489Y215592D03*
G01*
X-2703489Y215592D03*
G01*
X-2503490Y215592D03*
G01*
X-2303490Y215592D03*
G01*
X-2103490Y215592D03*
G01*
X-1903491Y215592D03*
G01*
X-1903491Y1765602D03*
G01*
X-2103490Y1765602D03*
G01*
X-2303490Y1765602D03*
G01*
X-2503490Y1765602D03*
G01*
X-2703489Y1765602D03*
G01*
X-2903489Y1765602D03*
G01*
X-3103488Y1765602D03*
G01*
X-3303488Y1765602D03*
D15*
G01*
X-1041400Y444500D03*
G01*
X-1041400Y190500D03*
G01*
X-1295400Y444500D03*
G01*
X-1295400Y190500D03*
G01*
X-1549400Y444500D03*
D16*
G01*
X-1549400Y190500D03*
D17*
G01*
X-540258Y1302512D03*
G01*
X-540004Y1052321D03*
G01*
X-540258Y852423D03*
G01*
X-540004Y602487D03*
D18*
G01*
X-360172Y1542287D03*
G01*
X-360172Y362457D03*
D19*
G01*
X-2886697Y695134D03*
G01*
X-3349891Y478548D03*
G01*
X-2088654Y1382458D03*
G01*
X-1065263Y1907578D03*
G01*
X-2145068Y1323530D03*
G01*
X-901890Y348322D03*
G01*
X-3509708Y1916264D03*
G01*
X-1663687Y1590078D03*
G01*
X-926477Y744334D03*
G01*
X-3481920Y1658048D03*
G01*
X-662673Y1134402D03*
G01*
X-2834754Y1600441D03*
G01*
X-2522537Y867803D03*
G01*
X-1422946Y689343D03*
G01*
X-2451544Y1297368D03*
G01*
X-2597696Y1591602D03*
G01*
X-2471077Y933691D03*
G01*
X-1659801Y896353D03*
G01*
X-2713443Y1614919D03*
G01*
X-3583266Y1104074D03*
G01*
X-3434016Y1018476D03*
G01*
X-3439528Y612076D03*
G01*
X-3662794Y194398D03*
G01*
X-763333Y365493D03*
G01*
X-3543033Y315963D03*
G01*
X-3460305Y1566024D03*
G01*
X-1642427Y1803692D03*
G01*
X-826579Y1803692D03*
G01*
X-599097Y1447533D03*
G01*
X-1832825Y1616748D03*
G01*
X-1648345Y1394421D03*
G01*
X-1297393Y1494751D03*
G01*
X-2613545Y523836D03*
G01*
X-1830920Y557364D03*
G01*
X-2909150Y1534096D03*
M02*
