G04 Layer: BottomSilkscreenLayer*
G04 EasyEDA v6.5.48, 2025-02-22 14:07:37*
G04 17b28a04ad434079b4a69dc4657e0bf9,f2e2a8b566e441589a5ce94012aa69ba,10*
G04 Gerber Generator version 0.2*
G04 Scale: 100 percent, Rotated: No, Reflected: No *
G04 Dimensions in millimeters *
G04 leading zeros omitted , absolute positions ,4 integer and 5 decimal *
%FSLAX45Y45*%
%MOMM*%

%ADD10C,0.2540*%
%ADD11C,0.1524*%
%ADD12C,0.1500*%
%ADD13C,0.2000*%
%ADD14C,0.1520*%
%ADD15C,0.0800*%
%ADD16C,0.4000*%

%LPD*%
G36*
X-3558082Y1688388D02*
G01*
X-3630117Y1687423D01*
X-3594100Y1662430D01*
G37*
G36*
X-3405276Y213817D02*
G01*
X-3430270Y177800D01*
X-3404311Y141833D01*
G37*
D10*
X-2715181Y360842D02*
G01*
X-2635183Y360842D01*
X-2771226Y360796D02*
G01*
X-2851223Y360796D01*
X-2715181Y502810D02*
G01*
X-2635183Y502810D01*
X-2771226Y502762D02*
G01*
X-2851223Y502762D01*
X-2604208Y391825D02*
G01*
X-2604208Y471830D01*
X-2882201Y471777D02*
G01*
X-2882201Y391774D01*
D11*
X-3489939Y478078D02*
G01*
X-3489939Y382191D01*
X-3622060Y382191D01*
X-3622060Y478078D01*
X-3489939Y563321D02*
G01*
X-3489939Y659208D01*
X-3622060Y659208D01*
X-3622060Y563321D01*
X-1706321Y1597639D02*
G01*
X-1802208Y1597639D01*
X-1802208Y1729760D01*
X-1706321Y1729760D01*
X-1621078Y1597639D02*
G01*
X-1525191Y1597639D01*
X-1525191Y1729760D01*
X-1621078Y1729760D01*
X-3528039Y1278178D02*
G01*
X-3528039Y1182291D01*
X-3660160Y1182291D01*
X-3660160Y1278178D01*
X-3528039Y1363421D02*
G01*
X-3528039Y1459308D01*
X-3660160Y1459308D01*
X-3660160Y1363421D01*
X-1483339Y998778D02*
G01*
X-1483339Y902891D01*
X-1615460Y902891D01*
X-1615460Y998778D01*
X-1483339Y1084021D02*
G01*
X-1483339Y1179908D01*
X-1615460Y1179908D01*
X-1615460Y1084021D01*
X-3154121Y530839D02*
G01*
X-3250008Y530839D01*
X-3250008Y662960D01*
X-3154121Y662960D01*
X-3068878Y530839D02*
G01*
X-2972991Y530839D01*
X-2972991Y662960D01*
X-3068878Y662960D01*
X-695939Y490778D02*
G01*
X-695939Y394891D01*
X-828060Y394891D01*
X-828060Y490778D01*
X-695939Y576021D02*
G01*
X-695939Y671908D01*
X-828060Y671908D01*
X-828060Y576021D01*
D12*
X-3667099Y1639399D02*
G01*
X-3667099Y1524401D01*
X-3522101Y1524401D01*
X-3522101Y1644401D01*
X-3521100Y1706399D02*
G01*
X-3521100Y1830400D01*
X-3666098Y1830400D01*
X-3666098Y1706399D01*
X-3667099Y1524401D02*
G01*
X-3667099Y1521399D01*
X-3647099Y1501399D01*
X-3545100Y1501399D01*
X-3542101Y1504401D01*
X-3522101Y1524401D01*
D11*
X-1338719Y1329080D02*
G01*
X-1338719Y1744319D01*
X-1023480Y1329080D02*
G01*
X-1092779Y1329080D01*
X-1338719Y1329080D02*
G01*
X-1269420Y1329080D01*
X-1338719Y1744319D02*
G01*
X-1269420Y1744319D01*
X-1023480Y1329080D02*
G01*
X-1023480Y1744319D01*
X-1023480Y1744319D02*
G01*
X-1092779Y1744319D01*
D13*
X-2047908Y1399501D02*
G01*
X-1927918Y1399501D01*
X-1927918Y759523D01*
X-2567896Y759523D01*
X-2567896Y1399501D01*
X-2007903Y1399501D01*
D14*
X-2819603Y1323009D02*
G01*
X-3479596Y1323009D01*
X-3479596Y963015D01*
X-2819603Y963015D01*
X-2819603Y1323009D01*
D11*
X-1909521Y111739D02*
G01*
X-2005408Y111739D01*
X-2005408Y243860D01*
X-1909521Y243860D01*
X-1824278Y111739D02*
G01*
X-1728391Y111739D01*
X-1728391Y243860D01*
X-1824278Y243860D01*
D12*
X-3453300Y250799D02*
G01*
X-3568298Y250799D01*
X-3568298Y105801D01*
X-3448298Y105801D01*
X-3386300Y104800D02*
G01*
X-3262299Y104800D01*
X-3262299Y249798D01*
X-3386300Y249798D01*
X-3568298Y250799D02*
G01*
X-3571300Y250799D01*
X-3591300Y230799D01*
X-3591300Y128800D01*
X-3588298Y125801D01*
X-3568298Y105801D01*
D15*
X-1010920Y618489D02*
G01*
X-1325879Y618489D01*
X-1008379Y778510D02*
G01*
X-1328420Y778510D01*
X-1136050Y618489D02*
G01*
X-1136423Y778510D01*
X-1823720Y339089D02*
G01*
X-2138679Y339089D01*
X-1821179Y499110D02*
G01*
X-2141220Y499110D01*
X-1948850Y339089D02*
G01*
X-1949223Y499110D01*
D10*
X-3187600Y237802D02*
G01*
X-3187600Y117800D01*
X-2982602Y257802D02*
G01*
X-2882600Y257802D01*
X-2982602Y97797D02*
G01*
X-2882600Y97797D01*
X-3062610Y257802D02*
G01*
X-3162599Y257802D01*
X-3062610Y97797D02*
G01*
X-3162599Y97797D01*
X-2857599Y237802D02*
G01*
X-2857599Y117800D01*
X-2877599Y257802D02*
G01*
X-2882600Y257802D01*
X-2877601Y97797D02*
G01*
X-2882600Y97797D01*
X-3167600Y257802D02*
G01*
X-3162599Y257802D01*
X-3167598Y97797D02*
G01*
X-3162599Y97797D01*
X-703742Y231218D02*
G01*
X-703742Y311216D01*
X-703696Y175173D02*
G01*
X-703696Y95176D01*
X-845710Y231218D02*
G01*
X-845710Y311216D01*
X-845662Y175173D02*
G01*
X-845662Y95176D01*
X-734725Y342191D02*
G01*
X-814730Y342191D01*
X-814677Y64198D02*
G01*
X-734674Y64198D01*
D11*
X-1706321Y1419839D02*
G01*
X-1802208Y1419839D01*
X-1802208Y1551960D01*
X-1706321Y1551960D01*
X-1621078Y1419839D02*
G01*
X-1525191Y1419839D01*
X-1525191Y1551960D01*
X-1621078Y1551960D01*
D10*
X-1008542Y1094818D02*
G01*
X-1008542Y1174816D01*
X-1008496Y1038773D02*
G01*
X-1008496Y958776D01*
X-1150510Y1094818D02*
G01*
X-1150510Y1174816D01*
X-1150462Y1038773D02*
G01*
X-1150462Y958776D01*
X-1039525Y1205791D02*
G01*
X-1119530Y1205791D01*
X-1119477Y927798D02*
G01*
X-1039474Y927798D01*
X-1211742Y1094818D02*
G01*
X-1211742Y1174816D01*
X-1211696Y1038773D02*
G01*
X-1211696Y958776D01*
X-1353710Y1094818D02*
G01*
X-1353710Y1174816D01*
X-1353662Y1038773D02*
G01*
X-1353662Y958776D01*
X-1242725Y1205791D02*
G01*
X-1322730Y1205791D01*
X-1322677Y927798D02*
G01*
X-1242674Y927798D01*
G75*
G01*
X-2851219Y502763D02*
G03*
X-2882201Y471777I0J-30983D01*
G75*
G01*
X-2882201Y391780D02*
G03*
X-2851219Y360797I30982J0D01*
G75*
G01*
X-2635189Y360843D02*
G03*
X-2604209Y391825I-3J30982D01*
G75*
G01*
X-2604209Y471823D02*
G03*
X-2635189Y502811I-30983J5D01*
D16*
G75*
G01*
X-1967654Y499514D02*
G02*
X-1968162Y499514I-254J-19998D01*
D10*
G75*
G01*
X-2857599Y237802D02*
G03*
X-2877599Y257802I-20000J0D01*
G75*
G01*
X-2857599Y117800D02*
G02*
X-2877602Y97798I-20003J0D01*
G75*
G01*
X-3187601Y237802D02*
G02*
X-3167601Y257802I20000J0D01*
G75*
G01*
X-3187601Y117800D02*
G03*
X-3167598Y97798I20003J0D01*
G75*
G01*
X-845663Y95181D02*
G03*
X-814677Y64199I30983J0D01*
G75*
G01*
X-734680Y64199D02*
G03*
X-703697Y95181I0J30982D01*
G75*
G01*
X-703743Y311211D02*
G03*
X-734725Y342191I-30982J-3D01*
G75*
G01*
X-814723Y342191D02*
G03*
X-845711Y311211I-5J-30983D01*
G75*
G01*
X-1150463Y958781D02*
G03*
X-1119477Y927799I30983J0D01*
G75*
G01*
X-1039480Y927799D02*
G03*
X-1008497Y958781I0J30982D01*
G75*
G01*
X-1008543Y1174811D02*
G03*
X-1039525Y1205791I-30982J-3D01*
G75*
G01*
X-1119523Y1205791D02*
G03*
X-1150511Y1174811I-5J-30983D01*
G75*
G01*
X-1353663Y958781D02*
G03*
X-1322677Y927799I30983J0D01*
G75*
G01*
X-1242680Y927799D02*
G03*
X-1211697Y958781I0J30982D01*
G75*
G01*
X-1211743Y1174811D02*
G03*
X-1242725Y1205791I-30982J-3D01*
G75*
G01*
X-1322723Y1205791D02*
G03*
X-1353711Y1174811I-5J-30983D01*
G75*
G01
X-1099769Y1536700D02*
G03X-1099769Y1536700I-81331J0D01*
M02*
