G04 Layer: BottomLayer*
G04 EasyEDA v6.5.48, 2025-02-22 14:07:37*
G04 17b28a04ad434079b4a69dc4657e0bf9,f2e2a8b566e441589a5ce94012aa69ba,10*
G04 Gerber Generator version 0.2*
G04 Scale: 100 percent, Rotated: No, Reflected: No *
G04 Dimensions in millimeters *
G04 leading zeros omitted , absolute positions ,4 integer and 5 decimal *
%FSLAX45Y45*%
%MOMM*%

%AMMACRO1*21,1,$1,$2,0,0,$3*%
%ADD10C,0.2540*%
%ADD11MACRO1,0.8X0.9X0.0000*%
%ADD12R,0.8640X0.8065*%
%ADD13MACRO1,0.864X0.8065X0.0000*%
%ADD14MACRO1,0.864X0.8065X90.0000*%
%ADD15MACRO1,1X0.8999X0.0000*%
%ADD16MACRO1,1.36X1.53X0.0000*%
%ADD17O,0.4500118X1.9999959999999999*%
%ADD18O,1.9999959999999999X0.4500118*%
%ADD19MACRO1,3.25X1.9X0.0000*%
%ADD20MACRO1,0.95X1.9X0.0000*%
%ADD21MACRO1,1X0.8999X-90.0000*%
%ADD22MACRO1,1.5X1.3589X0.0000*%
%ADD23MACRO1,1X1.1X0.0000*%
%ADD24MACRO1,0.8X0.9X-90.0000*%
%ADD25C,1.5748*%
%ADD26R,1.5748X1.5748*%
%ADD27C,1.6000*%
%ADD28C,3.4999*%
%ADD29C,0.6100*%
%ADD30C,0.0130*%

%LPD*%
G36*
X-2120900Y2184400D02*
G01*
X-2133600Y2171700D01*
X-2044090Y2171090D01*
X-2057400Y2184400D01*
G37*
D10*
X-2687891Y1199502D02*
G01*
X-2774988Y1199502D01*
X-2909150Y1333665D01*
X-2909150Y1534096D01*
X-1807883Y799503D02*
G01*
X-1807883Y580402D01*
X-1830920Y557364D01*
X-2687891Y1119517D02*
G01*
X-2759951Y1119517D01*
X-2823679Y1055789D01*
X-2823679Y705497D01*
X-2741256Y623074D01*
X-2741256Y375170D01*
X-2724797Y358711D01*
X-2621572Y358711D01*
X-2605087Y375196D01*
X-2605087Y515378D01*
X-2613545Y523836D01*
X-1549387Y1184973D02*
G01*
X-1297393Y1436966D01*
X-1297393Y1494751D01*
X-1549387Y1116749D02*
G01*
X-1549387Y1184973D01*
X-1807883Y959523D02*
G01*
X-1627060Y959523D01*
X-1620507Y966076D01*
X-1549387Y966076D02*
G01*
X-1620507Y966076D01*
X-1588350Y1414792D02*
G01*
X-1627974Y1414792D01*
X-1648345Y1394421D01*
X-1588350Y1485912D02*
G01*
X-1588350Y1414792D01*
X-1807883Y879513D02*
G01*
X-1882025Y879513D01*
X-1936051Y933538D01*
X-1936051Y1388960D01*
X-1839099Y1485912D01*
X-1739023Y1485912D01*
X-3594087Y1591398D02*
G01*
X-3594087Y1396149D01*
X-3594087Y1245476D02*
G01*
X-3594087Y1313726D01*
X-3594087Y1313726D02*
G01*
X-3525837Y1313726D01*
X-3511842Y1327721D01*
X-3511842Y1397419D01*
X-3172091Y1737169D01*
X-1953247Y1737169D01*
X-1832825Y1616748D01*
X-1642427Y1803692D02*
G01*
X-1711286Y1734832D01*
X-1739023Y1734832D01*
X-1739023Y1663712D02*
G01*
X-1739023Y1734832D01*
X-826579Y1803692D02*
G01*
X-599097Y1576209D01*
X-599097Y1447533D01*
X-1588350Y1734832D02*
G01*
X-1570469Y1752714D01*
X-1570469Y1815401D01*
X-1622463Y1867395D01*
X-3158934Y1867395D01*
X-3460305Y1566024D01*
X-3501301Y177812D02*
G01*
X-3501301Y274231D01*
X-3543033Y315963D01*
X-1588350Y1663712D02*
G01*
X-1588350Y1734832D01*
X-761987Y389851D02*
G01*
X-763333Y388505D01*
X-763333Y365493D01*
X-3583266Y1104074D02*
G01*
X-3497694Y1018501D01*
X-3434016Y1018501D01*
X-3434016Y1018476D01*
X-3662794Y194398D02*
G01*
X-3679024Y210629D01*
X-3679024Y605472D01*
X-3620046Y664451D01*
X-3491903Y664451D01*
X-3439528Y612076D01*
X-761987Y458076D02*
G01*
X-761987Y389851D01*
X-1549387Y190512D02*
G01*
X-1549387Y297167D01*
X-2687891Y1359522D02*
G01*
X-2599423Y1359522D01*
X-2471077Y1231176D01*
X-2471077Y933691D01*
X-1659801Y896353D02*
G01*
X-1659801Y843394D01*
X-1438262Y621855D01*
X-1438262Y381622D01*
X-1522717Y297167D01*
X-1549387Y297167D01*
X-2687891Y1359522D02*
G01*
X-2687891Y1589366D01*
X-2713443Y1614919D01*
X-761987Y608749D02*
G01*
X-761987Y540499D01*
X-2597696Y1591602D02*
G01*
X-2597696Y1589316D01*
X-2527896Y1519516D01*
X-2527896Y1519516D02*
G01*
X-2527896Y1373720D01*
X-2451544Y1297368D01*
X-761987Y540499D02*
G01*
X-811390Y540499D01*
X-926122Y425767D01*
X-926122Y406895D01*
X-1015504Y317512D01*
X-1168387Y317512D01*
X-1295387Y190512D01*
X-1295387Y444512D02*
G01*
X-1395107Y544233D01*
X-1395107Y661504D01*
X-1422946Y689343D01*
X-2522537Y867803D02*
G01*
X-2548216Y893483D01*
X-2548216Y1222540D01*
X-2605189Y1279512D01*
X-2687891Y1279512D01*
X-2687891Y1279512D02*
G01*
X-2763227Y1279512D01*
X-2834754Y1351038D01*
X-2834754Y1600441D01*
X-3149587Y1448015D02*
G01*
X-2959163Y1448015D01*
X-3149587Y838009D02*
G01*
X-3149587Y960920D01*
X-2250859Y501586D02*
G01*
X-2207882Y544563D01*
X-2207882Y639508D01*
X-3555987Y445376D02*
G01*
X-3555987Y377151D01*
X-3367747Y177812D02*
G01*
X-3404196Y177812D01*
X-1048397Y698512D02*
G01*
X-1048397Y897801D01*
X-1079487Y928890D01*
X-3149587Y838009D02*
G01*
X-3149587Y715098D01*
X-1079487Y996810D02*
G01*
X-1079487Y962850D01*
X-1079487Y962850D02*
G01*
X-1079487Y928890D01*
X-1246212Y996810D02*
G01*
X-1209763Y996810D01*
X-2250859Y501586D02*
G01*
X-2309380Y501586D01*
X-2367876Y560082D01*
X-2367876Y639508D01*
X-3367747Y177812D02*
G01*
X-3331298Y177812D01*
X-3331298Y177812D02*
G01*
X-3258375Y177812D01*
X-3258375Y177812D02*
G01*
X-3112604Y177812D01*
X-662673Y1134402D02*
G01*
X-800265Y996810D01*
X-1079487Y996810D01*
X-1246212Y996810D02*
G01*
X-1282687Y996810D01*
X-1873973Y177812D02*
G01*
X-1873973Y246062D01*
X-1822691Y297345D01*
X-1696554Y297345D01*
X-1549387Y444512D01*
X-1942223Y177812D02*
G01*
X-1873973Y177812D01*
X-1079487Y962850D02*
G01*
X-1175804Y962850D01*
X-1209763Y996810D01*
X-2959163Y1448015D02*
G01*
X-2959163Y1151343D01*
X-3149587Y960920D01*
X-3594087Y1724952D02*
G01*
X-3594087Y1688503D01*
X-3594087Y1724952D02*
G01*
X-3594087Y1761401D01*
X-3594087Y1688503D02*
G01*
X-3512375Y1688503D01*
X-3481920Y1658048D01*
X-2250859Y381850D02*
G01*
X-2554160Y78549D01*
X-3159112Y78549D01*
X-3258375Y177812D01*
X-2250859Y501586D02*
G01*
X-2250859Y381850D01*
X-2250859Y381850D02*
G01*
X-2046820Y177812D01*
X-1942223Y177812D01*
X-1048397Y698512D02*
G01*
X-945476Y698512D01*
X-945476Y698512D02*
G01*
X-945476Y725335D01*
X-926477Y744334D01*
X-3555987Y377151D02*
G01*
X-3412985Y377151D01*
X-3412985Y377151D02*
G01*
X-3404196Y368363D01*
X-3404196Y177812D01*
X-3334143Y590029D02*
G01*
X-3672166Y928052D01*
X-3672166Y1657108D01*
X-3604323Y1724952D01*
X-3594087Y1724952D01*
X-3149587Y715098D02*
G01*
X-3209074Y715098D01*
X-3334143Y590029D01*
X-3334143Y590029D02*
G01*
X-3412985Y511187D01*
X-3412985Y377151D01*
X-2447886Y1519516D02*
G01*
X-2447886Y1591932D01*
X-2546667Y1690712D01*
X-2835363Y1690712D01*
X-2967723Y1558353D01*
X-2967723Y1509839D01*
X-2959163Y1501279D01*
X-2959163Y1448015D01*
X-1663687Y1590078D02*
G01*
X-1537906Y1590078D01*
X-1519948Y1608035D01*
X-1519948Y1835061D01*
X-1601152Y1916264D01*
X-3509708Y1916264D01*
X-901890Y348322D02*
G01*
X-847610Y294043D01*
X-847610Y273215D01*
X-774687Y273215D02*
G01*
X-847610Y273215D01*
X-774687Y133210D02*
G01*
X-774687Y201129D01*
X-3555987Y596049D02*
G01*
X-3555987Y527799D01*
X-1667878Y1098816D02*
G01*
X-1610017Y1040930D01*
X-1485506Y1040930D01*
X-1239100Y794524D01*
X-1201762Y794524D01*
X-1160945Y753706D01*
X-1160945Y621753D01*
X-1137881Y598690D01*
X-952715Y598690D01*
X-866787Y684618D01*
X-707758Y684618D01*
X-679081Y655942D01*
X-679081Y236562D01*
X-714514Y201129D01*
X-774687Y201129D01*
X-1807883Y1039507D02*
G01*
X-1727187Y1039507D01*
X-1667878Y1098816D01*
X-1667878Y1098816D02*
G01*
X-1652993Y1113701D01*
X-1652993Y1221981D01*
X-1307553Y1567421D01*
X-1282534Y1567421D01*
X-1209865Y1494751D01*
X-1209865Y1466405D01*
X-1181087Y1437627D01*
X-1041387Y190512D02*
G01*
X-1030770Y201129D01*
X-774687Y201129D01*
X-1181087Y1333207D02*
G01*
X-1181087Y1437627D01*
X-1041387Y190512D02*
G01*
X-1197622Y34277D01*
X-3496906Y34277D01*
X-3604221Y141592D01*
X-3604221Y218681D01*
X-3638232Y252691D01*
X-3638232Y513803D01*
X-3624237Y527799D01*
X-3555987Y527799D01*
X-2145068Y1323530D02*
G01*
X-2145068Y976718D01*
X-1889493Y721144D01*
X-1889493Y447408D01*
X-1861197Y419112D01*
X-1065263Y1907578D02*
G01*
X-1065263Y1827542D01*
X-540245Y1302524D01*
X-2673184Y431812D02*
G01*
X-2673184Y645629D01*
X-2509583Y809231D01*
X-2498255Y809231D01*
X-2287892Y1019594D01*
X-2287892Y1519516D01*
X-360159Y362470D02*
G01*
X-539991Y542302D01*
X-539991Y602500D01*
X-3036150Y596912D02*
G01*
X-3036150Y668032D01*
X-2127897Y639508D02*
G01*
X-2127897Y541693D01*
X-2101176Y514972D01*
X-2101176Y419112D02*
G01*
X-2101176Y514972D01*
X-2287892Y639508D02*
G01*
X-2287892Y716419D01*
X-2235441Y768870D01*
X-2207882Y768870D01*
X-2207882Y768870D02*
G01*
X-2181821Y768870D01*
X-2127897Y714946D01*
X-2127897Y639508D01*
X-2813189Y431812D02*
G01*
X-2881109Y431812D01*
X-1288376Y602653D02*
G01*
X-1199527Y602653D01*
X-1041387Y444512D01*
X-1288376Y698512D02*
G01*
X-1288376Y602653D01*
X-2932595Y177812D02*
G01*
X-2932595Y380326D01*
X-2881109Y431812D01*
X-1282687Y1136815D02*
G01*
X-1209763Y1136815D01*
X-2919590Y838009D02*
G01*
X-2919590Y743800D01*
X-1209763Y1136815D02*
G01*
X-1084999Y1136815D01*
X-1084999Y1136815D02*
G01*
X-1079487Y1136815D01*
X-1085176Y1740217D02*
G01*
X-1084999Y1740039D01*
X-1084999Y1136815D01*
X-1079487Y1136815D02*
G01*
X-1079487Y1204734D01*
X-360159Y1542300D02*
G01*
X-360159Y1315554D01*
X-487210Y1188504D01*
X-539991Y602500D02*
G01*
X-427596Y714895D01*
X-427596Y1128890D01*
X-487210Y1188504D01*
X-487210Y1188504D02*
G01*
X-628002Y1188504D01*
X-644232Y1204734D01*
X-1079487Y1204734D01*
X-2207882Y1382458D02*
G01*
X-2088654Y1382458D01*
X-2207882Y1519516D02*
G01*
X-2207882Y1382458D01*
X-2207882Y1382458D02*
G01*
X-2207882Y768870D01*
X-1181087Y1740217D02*
G01*
X-1085176Y1740217D01*
X-3036150Y596912D02*
G01*
X-3186823Y596912D01*
X-3255048Y596912D02*
G01*
X-3255048Y573392D01*
X-3349891Y478548D01*
X-3186823Y596912D02*
G01*
X-3255048Y596912D01*
X-2886697Y695134D02*
G01*
X-2919590Y695134D01*
X-2919590Y743800D02*
G01*
X-2919590Y695134D01*
X-2919590Y668032D02*
G01*
X-2919590Y470293D01*
X-2881109Y431812D01*
X-2919590Y695134D02*
G01*
X-2919590Y668032D01*
X-2919590Y668032D02*
G01*
X-3036150Y668032D01*
D11*
G01*
X-2813199Y431800D03*
G01*
X-2673200Y431800D03*
D12*
G01*
X-3556000Y445363D03*
D13*
G01*
X-3556000Y596024D03*
D14*
G01*
X-1739024Y1663700D03*
G01*
X-1588375Y1663700D03*
D12*
G01*
X-3594100Y1245463D03*
D13*
G01*
X-3594100Y1396124D03*
D12*
G01*
X-1549400Y966063D03*
D13*
G01*
X-1549400Y1116724D03*
D14*
G01*
X-3186824Y596900D03*
G01*
X-3036175Y596900D03*
D12*
G01*
X-762000Y458063D03*
D13*
G01*
X-762000Y608724D03*
D15*
G01*
X-3594100Y1591409D03*
G01*
X-3594100Y1761408D03*
D16*
G01*
X-1181100Y1740199D03*
G01*
X-1181100Y1333200D03*
D17*
G01*
X-1967890Y639495D03*
G01*
X-2047900Y639495D03*
G01*
X-2127910Y639495D03*
G01*
X-2207895Y639495D03*
G01*
X-2287904Y639495D03*
G01*
X-2367889Y639495D03*
G01*
X-2447899Y639495D03*
G01*
X-2527909Y639495D03*
G01*
X-2527909Y1519504D03*
G01*
X-2447899Y1519504D03*
G01*
X-2367889Y1519504D03*
G01*
X-2287904Y1519504D03*
G01*
X-2207895Y1519504D03*
G01*
X-2127910Y1519504D03*
G01*
X-2047900Y1519504D03*
G01*
X-1967890Y1519504D03*
D18*
G01*
X-1807895Y799490D03*
G01*
X-1807895Y879500D03*
G01*
X-1807895Y959510D03*
G01*
X-1807895Y1039495D03*
G01*
X-1807895Y1119504D03*
G01*
X-1807895Y1199489D03*
G01*
X-1807895Y1279499D03*
G01*
X-1807895Y1359509D03*
G01*
X-2687904Y1359509D03*
G01*
X-2687904Y1279499D03*
G01*
X-2687904Y1199489D03*
G01*
X-2687904Y1119504D03*
G01*
X-2687904Y1039495D03*
G01*
X-2687904Y959510D03*
G01*
X-2687904Y879500D03*
G01*
X-2687904Y799490D03*
D19*
G01*
X-3149600Y1447999D03*
D20*
G01*
X-2919600Y837999D03*
G01*
X-3149600Y837999D03*
G01*
X-3379599Y837999D03*
D14*
G01*
X-1942224Y177800D03*
G01*
X-1791575Y177800D03*
D21*
G01*
X-3501290Y177800D03*
G01*
X-3331291Y177800D03*
D22*
G01*
X-1048400Y698500D03*
G01*
X-1288398Y698500D03*
G01*
X-1861200Y419100D03*
G01*
X-2101198Y419100D03*
D23*
G01*
X-2932602Y177800D03*
G01*
X-3112612Y177800D03*
D24*
G01*
X-774700Y133200D03*
G01*
X-774700Y273199D03*
D14*
G01*
X-1739024Y1485900D03*
G01*
X-1588375Y1485900D03*
D24*
G01*
X-1079500Y996800D03*
G01*
X-1079500Y1136799D03*
G01*
X-1282700Y996800D03*
G01*
X-1282700Y1136799D03*
D25*
G01*
X-1041400Y444500D03*
G01*
X-1041400Y190500D03*
G01*
X-1295400Y444500D03*
G01*
X-1295400Y190500D03*
G01*
X-1549400Y444500D03*
D26*
G01*
X-1549400Y190500D03*
D27*
G01*
X-540258Y1302512D03*
G01*
X-540004Y1052321D03*
G01*
X-540258Y852423D03*
G01*
X-540004Y602487D03*
D28*
G01*
X-360172Y1542287D03*
G01*
X-360172Y362457D03*
D29*
G01*
X-2886697Y695134D03*
G01*
X-3349891Y478548D03*
G01*
X-2088654Y1382458D03*
G01*
X-1065263Y1907578D03*
G01*
X-2145068Y1323530D03*
G01*
X-901890Y348322D03*
G01*
X-3509708Y1916264D03*
G01*
X-1663687Y1590078D03*
G01*
X-926477Y744334D03*
G01*
X-3481920Y1658048D03*
G01*
X-662673Y1134402D03*
G01*
X-2834754Y1600441D03*
G01*
X-2522537Y867803D03*
G01*
X-1422946Y689343D03*
G01*
X-2451544Y1297368D03*
G01*
X-2597696Y1591602D03*
G01*
X-2471077Y933691D03*
G01*
X-1659801Y896353D03*
G01*
X-2713443Y1614919D03*
G01*
X-3583266Y1104074D03*
G01*
X-3434016Y1018476D03*
G01*
X-3439528Y612076D03*
G01*
X-3662794Y194398D03*
G01*
X-763333Y365493D03*
G01*
X-3543033Y315963D03*
G01*
X-3460305Y1566024D03*
G01*
X-1642427Y1803692D03*
G01*
X-826579Y1803692D03*
G01*
X-599097Y1447533D03*
G01*
X-1832825Y1616748D03*
G01*
X-1648345Y1394421D03*
G01*
X-1297393Y1494751D03*
G01*
X-2613545Y523836D03*
G01*
X-1830920Y557364D03*
G01*
X-2909150Y1534096D03*
M02*
